<svg xmlns="http://www.w3.org/2000/svg" width="241.372" height="207.86" viewBox="0 0 241.372 207.86">
  <g id="No_results" data-name="No results" transform="translate(-951.625 -466.637)">
    <g id="Group_1080" data-name="Group 1080" transform="translate(41.064 26.562)">
      <g id="search" transform="translate(932.647 517.027)">
        <path id="Subtraction_10" data-name="Subtraction 10" d="M173.818,80.55H9a9.01,9.01,0,0,1-9-9V-12a9.01,9.01,0,0,1,9-9H173.818a9.01,9.01,0,0,1,9,9V71.55A9.01,9.01,0,0,1,173.818,80.55ZM19.789-5.588a5.506,5.506,0,0,0-5.5,5.5,5.506,5.506,0,0,0,5.5,5.5h144a5.506,5.506,0,0,0,5.5-5.5,5.506,5.506,0,0,0-5.5-5.5Z" fill="#cfd8e8"/>
      </g>
      <g id="Group_1081" data-name="Group 1081" transform="translate(0 -27)">
        <g id="Group_1078" data-name="Group 1078" transform="translate(978.729 594.504) rotate(-39)">
          <g id="Ellipse_71" data-name="Ellipse 71" transform="translate(0)" fill="#f2f5fb" stroke="#a9b5c9" stroke-width="7">
            <circle cx="42.593" cy="42.593" r="42.593" stroke="none"/>
            <circle cx="42.593" cy="42.593" r="39.093" fill="none"/>
          </g>
          <line id="Line_89" data-name="Line 89" x2="0.518" y2="48.584" transform="translate(42.075 82.582)" fill="none" stroke="#a9b5c9" stroke-linecap="round" stroke-width="7"/>
        </g>
        <path id="Subtraction_11" data-name="Subtraction 11" d="M41.726,39.443H9.334A7,7,0,0,1,3.578,28.46l16.2-23.4a7,7,0,0,1,11.513,0l16.2,23.4a7,7,0,0,1-5.756,10.983ZM25.787,31.109a1.544,1.544,0,0,0-1.542,1.543v.041a1.542,1.542,0,0,0,3.083,0v-.041A1.544,1.544,0,0,0,25.787,31.109Zm0-19.79a1.543,1.543,0,0,0-1.542,1.542V28.005a1.542,1.542,0,1,0,3.083,0V12.861A1.543,1.543,0,0,0,25.787,11.319Z" transform="translate(1013.384 578.225)" fill="#a9b5c9"/>
      </g>
    </g>
    <g id="Group_1082" data-name="Group 1082" transform="translate(-1944.375 -13813.363)">
      <path id="Polygon_11" data-name="Polygon 11" d="M5.613,2.714A2,2,0,0,1,9,2.714l3.7,5.92a2,2,0,0,1-1.7,3.06h-7.4a2,2,0,0,1-1.7-3.06Z" transform="translate(3127.036 14373.102) rotate(45)" fill="#a9b5c9"/>
      <g id="Polygon_12" data-name="Polygon 12" transform="matrix(-0.978, 0.208, -0.208, -0.978, 2987.433, 14473.198)" fill="none">
        <path d="M10.774,2.4a2,2,0,0,1,3.3,0l8.62,12.539a2,2,0,0,1-1.648,3.133H3.8a2,2,0,0,1-1.648-3.133Z" stroke="none"/>
        <path d="M 12.42234802246094 3.530274391174316 L 3.802066802978516 16.06887245178223 C 3.802066802978516 16.06887435913086 3.802066802978516 16.06887435913086 3.802057266235352 16.06887435913086 L 21.04262733459473 16.06887435913086 C 21.04262924194336 16.06887054443359 21.04263114929199 16.06886672973633 21.04264831542969 16.06888389587402 L 12.42234802246094 3.530274391174316 M 12.42234802246094 1.530275344848633 C 13.04771518707275 1.530275344848633 13.67308330535889 1.819253921508789 14.07042789459229 2.397214889526367 L 22.69072723388672 14.93582439422607 C 23.6030387878418 16.26282501220703 22.65299797058105 18.06887435913086 21.04263877868652 18.06887435913086 L 3.802057266235352 18.06887435913086 C 2.19169807434082 18.06887435913086 1.241657257080078 16.26282501220703 2.15397834777832 14.93582439422607 L 10.77426815032959 2.397214889526367 C 11.17161273956299 1.819253921508789 11.79698085784912 1.530275344848633 12.42234802246094 1.530275344848633 Z" stroke="none" fill="#53e773"/>
      </g>
      <g id="Ellipse_67" data-name="Ellipse 67" transform="translate(3072 14313)" fill="none" stroke="#53e773" stroke-width="2">
        <circle cx="10.5" cy="10.5" r="10.5" stroke="none"/>
        <circle cx="10.5" cy="10.5" r="9.5" fill="none"/>
      </g>
      <circle id="Ellipse_68" data-name="Ellipse 68" cx="3" cy="3" r="3" transform="translate(2996 14280)" fill="#cfd8e8"/>
      <circle id="Ellipse_69" data-name="Ellipse 69" cx="7.5" cy="7.5" r="7.5" transform="translate(2896 14311.904)" fill="#c7d0de"/>
      <circle id="Ellipse_70" data-name="Ellipse 70" cx="3.5" cy="3.5" r="3.5" transform="translate(2896.5 14391.706)" fill="#53e773"/>
    </g>
  </g>
</svg>
