<svg xmlns="http://www.w3.org/2000/svg" width="123" height="125.905" viewBox="0 0 123 125.905"><defs><style>.a{fill:#cfd8e8;}</style></defs><g transform="translate(-1519.5 -277.756)"><g transform="translate(1517.5 276.173)"><path class="a" d="M23,51h4.1v4.1H23Z" transform="translate(22.05 51.888)"/><path class="a" d="M112.7,116.212V41.818L63.5,8.417l-49.2,33.4V63.7a7.142,7.142,0,0,1,6.65,4.487c5.109,12.632,7.7,21.205,7.7,25.477,0,8.549-5.164,15.156-12.3,16.23v-4.155c4.678-1.039,8.2-5.629,8.2-12.074,0-4.805-4.369-16.441-7.4-23.942a3.071,3.071,0,0,0-5.7,0c-3.032,7.5-7.4,19.137-7.4,23.942,0,6.447,3.522,11.035,8.2,12.074v10.476H2v4.1H125v-4.1ZM84,89.562l4.1-6.15,4.1,6.15v6.15h8.2v-6.15l4.1-6.15,4.1,6.15v26.65h-8.2v-12.3H92.2v12.3H84v-12.3H75.8v12.3H67.6V89.562l4.1-6.15,4.1,6.15v6.15H84Zm-18.45-41H75.8v4.1a6.15,6.15,0,0,1-6.15,6.15h-4.1Zm4.1-14.35a6.15,6.15,0,0,1,6.15,6.15v4.1H65.55V34.212ZM51.2,40.362a6.15,6.15,0,0,1,6.15-6.15h4.1v10.25H51.2Zm0,8.2H61.45v10.25h-4.1a6.15,6.15,0,0,1-6.15-6.15Zm4.1,28.7v38.95H32.75V77.262Z" transform="translate(0 7.176)"/><path class="a" d="M62.579,11.493l55.1,37.388,4.6-6.788-59.7-40.51-59.7,40.51,4.6,6.788Z" transform="translate(0.921 0)"/></g></g></svg>