<svg xmlns="http://www.w3.org/2000/svg" width="22.47" height="24.374" viewBox="0 0 22.47 24.374">
  <g id="alarm-clock" transform="translate(-20.001)">
    <g id="Group_957" data-name="Group 957" transform="translate(20.001)">
      <g id="Group_956" data-name="Group 956">
        <path id="Path_390" data-name="Path 390" d="M34,17.567a.948.948,0,0,0,.609-.221l2.585-2.156a.952.952,0,0,0-1.22-1.462l-2.585,2.156A.952.952,0,0,0,34,17.567Z" transform="translate(-32.426 -12.864)" fill="#53e773"/>
        <path id="Path_391" data-name="Path 391" d="M384.989,15.193l2.585,2.156a.952.952,0,1,0,1.22-1.462l-2.585-2.156a.952.952,0,1,0-1.22,1.462Z" transform="translate(-367.288 -12.866)" fill="#53e773"/>
        <path id="Path_392" data-name="Path 392" d="M39.18,5.195A11.151,11.151,0,0,0,32.14,1.94V.952a.952.952,0,1,0-1.9,0v1a11.235,11.235,0,0,0-6.945,19.135q.3.3.608.566l-.766,1.286a.952.952,0,1,0,1.636.974l.676-1.136a11.257,11.257,0,0,0,11.577,0l.678,1.138a.952.952,0,1,0,1.636-.974l-1.19-2a.952.952,0,0,0-1.383-.279,9.318,9.318,0,1,1,2.652-3.025.952.952,0,0,0,1.668.918,11.241,11.241,0,0,0-1.9-13.354Z" transform="translate(-20.001)" fill="#53e773"/>
        <path id="Path_393" data-name="Path 393" d="M235.952,129a.952.952,0,0,0-.952.952V136a.952.952,0,0,0,.279.673l2.693,2.693a.952.952,0,0,0,1.346-1.347L236.9,135.6v-5.651A.952.952,0,0,0,235.952,129Z" transform="translate(-224.765 -122.858)" fill="#53e773"/>
      </g>
    </g>
  </g>
</svg>
