<svg xmlns="http://www.w3.org/2000/svg" width="24.397" height="24.397" viewBox="0 0 24.397 24.397">
  <path id="calendar" d="M22.491,15.82V5.718a1.908,1.908,0,0,0-1.906-1.906H19.346v.953a.953.953,0,0,1-1.906,0V3.812H13.1v.953a.953.953,0,0,1-1.906,0V3.812H6.909v.953A.953.953,0,0,1,5,4.765V3.812H3.812A1.908,1.908,0,0,0,1.906,5.718V20.585a1.908,1.908,0,0,0,1.906,1.906H20.585a1.908,1.908,0,0,0,1.906-1.906.953.953,0,1,1,1.906,0A3.816,3.816,0,0,1,20.585,24.4H3.812A3.816,3.816,0,0,1,0,20.585V5.718A3.816,3.816,0,0,1,3.812,1.906H5V.953a.953.953,0,1,1,1.906,0v.953H11.2V.953a.953.953,0,0,1,1.906,0v.953H17.44V.953a.953.953,0,0,1,1.906,0v.953h1.239A3.816,3.816,0,0,1,24.4,5.718v10.1a.953.953,0,1,1-1.906,0ZM6.909,10.007a.953.953,0,1,0-1.906,0H5a.953.953,0,1,0,1.906,0Zm8.291,0a.953.953,0,1,0-1.906,0h0a.953.953,0,1,0,1.906,0Zm4.146,0a.953.953,0,1,0-1.906,0h0a.953.953,0,1,0,1.906,0ZM6.909,14.152a.953.953,0,0,0-1.906,0H5a.953.953,0,0,0,1.906,0Zm-.953,3.193A.953.953,0,0,0,5,18.3H5a.953.953,0,0,0,1.906,0h0A.953.953,0,0,0,5.956,17.345Zm5.1-7.338a.953.953,0,0,0-1.906,0h0a.953.953,0,0,0,1.906,0Zm0,4.146a.953.953,0,0,0-1.906,0h0a.953.953,0,0,0,1.906,0ZM10.1,17.345a.953.953,0,0,0-.953.953h0a.953.953,0,0,0,1.906,0h0A.953.953,0,0,0,10.1,17.345Zm5.1-3.193a.953.953,0,0,0-1.906,0h0a.953.953,0,0,0,1.906,0Zm3.193-.953a.953.953,0,0,0-.953.953h0a.953.953,0,0,0,1.906,0h0A.953.953,0,0,0,18.393,13.2Zm-4.146,4.146a.953.953,0,0,0-.953.953h0a.953.953,0,0,0,1.906,0h0A.953.953,0,0,0,14.247,17.345Z" fill="#53e773"/>
</svg>
