<svg id="close" xmlns="http://www.w3.org/2000/svg" width="14" height="14" viewBox="0 0 14 14">
  <path id="Path_75" data-name="Path 75" d="M.759,14A.721.721,0,0,1,.25,12.77L12.81.21a.72.72,0,0,1,1.019,1.019L1.269,13.788A.722.722,0,0,1,.759,14Zm0,0" transform="translate(-0.039 0.001)" fill="#424d63"/>
  <path id="Path_76" data-name="Path 76" d="M13.319,14a.715.715,0,0,1-.509-.211L.25,1.229A.72.72,0,0,1,1.269.21L13.828,12.77A.721.721,0,0,1,13.319,14Zm0,0" transform="translate(-0.039 0.001)" fill="#424d63"/>
</svg>
