<svg xmlns="http://www.w3.org/2000/svg" width="24.349" height="24.397" viewBox="0 0 24.349 24.397"><defs><style>.a{fill:#b3b7c0;}</style></defs><path class="a" d="M5.707,9.75A4.047,4.047,0,0,0,9.75,13.792a.951.951,0,0,1,0,1.9A5.945,5.945,0,1,1,15.694,9.75a.951.951,0,0,1-1.9,0,4.042,4.042,0,1,0-8.085,0Zm.747,8.413C4.014,15.49,1.906,13.181,1.9,9.74a7.847,7.847,0,0,1,15.694,0,.951.951,0,0,0,.951.95h0a.951.951,0,0,0,.95-.952A9.749,9.749,0,0,0,2.86,2.852,9.687,9.687,0,0,0,0,9.74a10.186,10.186,0,0,0,1.61,5.437,28.944,28.944,0,0,0,3.44,4.268,32.472,32.472,0,0,1,3.61,4.462.951.951,0,0,0,1.608-1.016,33.938,33.938,0,0,0-3.814-4.728Zm17.646.456a.951.951,0,0,1-1.344.06l-.119-.109v3.147A2.682,2.682,0,0,1,19.96,24.4H14.615a2.682,2.682,0,0,1-2.678-2.68v-3.1l-.071.065a.951.951,0,1,1-1.284-1.4l4.909-4.488a2.683,2.683,0,0,1,3.639,0l3.145,2.876a.951.951,0,0,1,.1.09l1.666,1.523a.951.951,0,0,1,.06,1.344Zm-3.365-1.788-2.888-2.64a.79.79,0,0,0-1.072,0l-2.936,2.684v4.843a.777.777,0,0,0,.776.777H19.96a.777.777,0,0,0,.775-.777Zm0,0" transform="translate(0 0)"/></svg>