<svg xmlns="http://www.w3.org/2000/svg" width="21.517" height="24.002" viewBox="0 0 21.517 24.002">
  <path id="preapproval" d="M10.079,23.064A.937.937,0,0,1,9.141,24H3.75A3.754,3.754,0,0,1,0,20.251V3.75A3.754,3.754,0,0,1,3.75,0H15.277a3.755,3.755,0,0,1,3.75,3.75v9.938a.938.938,0,0,1-1.875,0V3.75a1.877,1.877,0,0,0-1.875-1.875H3.75A1.877,1.877,0,0,0,1.875,3.75v16.5A1.877,1.877,0,0,0,3.75,22.127H9.141a.937.937,0,0,1,.938.938ZM21.125,15.27a.938.938,0,0,0-1.308.216L15.2,21.942a.536.536,0,0,1-.771.04l-2.992-2.873a.938.938,0,0,0-1.3,1.353l2.995,2.876A2.418,2.418,0,0,0,14.793,24q.079,0,.159-.005a2.416,2.416,0,0,0,1.719-.9l.031-.041,4.64-6.482a.937.937,0,0,0-.217-1.308ZM14.34,5.625H4.683a.938.938,0,1,0,0,1.875H14.34a.938.938,0,0,0,0-1.875Zm.938,4.688a.938.938,0,0,0-.938-.938H4.683a.938.938,0,1,0,0,1.875H14.34A.938.938,0,0,0,15.277,10.313ZM4.683,13.126a.938.938,0,0,0,0,1.875h5.865a.938.938,0,1,0,0-1.875Zm0,0" fill="#b3b7c0"/>
</svg>
