<svg xmlns="http://www.w3.org/2000/svg" width="24.5" height="24.5" viewBox="0 0 24.5 24.5">
  <g id="borrow" transform="translate(0.25 0.25)">
    <path id="Path_397" data-name="Path 397" d="M66.863,2.95a.469.469,0,0,0-.331-.137H61.749a5.156,5.156,0,1,0-.883,5.925A5.1,5.1,0,0,0,65.29,11.25h1.985l5.488,5.488a.469.469,0,0,0,.8-.331V9.844a.469.469,0,0,0-.137-.331ZM57.156,9.375a4.219,4.219,0,1,1,3.868-5.906,4.173,4.173,0,0,1,.325,1.219h-1.38a.469.469,0,0,0-.469.469,2.353,2.353,0,0,0,1.313,2.1A4.2,4.2,0,0,1,57.156,9.375Zm15.469,5.9L68.57,11.22a.468.468,0,0,0-.164-.907H65.29c-1.957,0-2.92-1.036-3.815-2.339a5.139,5.139,0,0,0,.276-.476l.093,0h.784a3.289,3.289,0,0,0,2.966,1.875.469.469,0,0,0,0-.937,2.349,2.349,0,0,1-2.211-1.563.469.469,0,0,0-.442-.312h-1.1a1.406,1.406,0,0,1-1.325-.937h5.075a.469.469,0,0,0,0-.938h-3.3a5.106,5.106,0,0,0-.173-.938h4.219l6.288,6.288Z" transform="translate(-49.563 0)" fill="#b3b7c0" stroke="#b3b7c0" stroke-width="0.5"/>
    <path id="Path_398" data-name="Path 398" d="M132.967,42.793a.469.469,0,0,1,0-.937h0a.754.754,0,0,1,.508.245.469.469,0,0,0,.652-.674,1.807,1.807,0,0,0-.7-.434v-.524a.469.469,0,0,0-.937,0V41a1.406,1.406,0,0,0,.477,2.729.469.469,0,0,1,0,.938h0a.839.839,0,0,1-.6-.354.469.469,0,0,0-.719.6,1.943,1.943,0,0,0,.85.608v.569a.469.469,0,0,0,.938,0v-.565a1.407,1.407,0,0,0-.461-2.736Z" transform="translate(-125.365 -38.125)" fill="#b3b7c0" stroke="#b3b7c0" stroke-width="0.5"/>
    <path id="Path_399" data-name="Path 399" d="M127.406,246a.469.469,0,0,0-.469.469v1.962l-.137-.137a.469.469,0,0,0-.663.663l.938.938a.469.469,0,0,0,.663,0l.937-.937a.469.469,0,0,0-.663-.663l-.137.137v-1.962A.469.469,0,0,0,127.406,246Z" transform="translate(-120.093 -234.469)" fill="#b3b7c0" stroke="#b3b7c0" stroke-width="0.5"/>
    <ellipse id="Ellipse_58" data-name="Ellipse 58" cx="1" cy="0.5" rx="1" ry="0.5" transform="translate(6 23)" fill="#b3b7c0" stroke="#b3b7c0" stroke-width="0.5"/>
    <path id="Path_400" data-name="Path 400" d="M3.41,353.875H.469a.469.469,0,0,0-.469.469v4.688a.469.469,0,0,0,.469.469H4.734a.469.469,0,0,0,0-.937H.938v-3.75h2.19a3.318,3.318,0,0,0-.034.469.469.469,0,0,0,.938,0,2.341,2.341,0,0,1,2.344-2.344h3.2a1.408,1.408,0,0,1-1.326.938H6.375a.469.469,0,0,0-.469.469,2.346,2.346,0,0,0,2.344,2.343h4.476a.467.467,0,0,0,.331-.137l2.264-2.264.005-.006a1.412,1.412,0,0,1,1.632-.233l-3.679,4.514H8.953a.469.469,0,0,0,0,.938H13.5a.469.469,0,0,0,.363-.173l4.128-5.065a.469.469,0,0,0-.032-.628,2.353,2.353,0,0,0-2.969-.284,2.348,2.348,0,0,0-2.985.273L9.88,355.75H8.25a1.409,1.409,0,0,1-1.326-.937H8.25a2.346,2.346,0,0,0,2.344-2.344.469.469,0,0,0-.469-.469H6.375a3.288,3.288,0,0,0-2.965,1.875Zm9.259.412a1.409,1.409,0,0,1,1.6-.275l-1.738,1.738H11.206Z" transform="translate(0 -335.5)" fill="#b3b7c0" stroke="#b3b7c0" stroke-width="0.5"/>
  </g>
</svg>
