<svg xmlns="http://www.w3.org/2000/svg" width="24.393" height="24.397" viewBox="0 0 24.393 24.397"><defs><style>.a{fill:#b3b7c0;}</style></defs><path class="a" d="M24.37,6.355l-1.649,7.476a3.8,3.8,0,0,1-3.712,2.99.953.953,0,1,1,0-1.906,1.888,1.888,0,0,0,1.851-1.5l1.649-7.476a.953.953,0,1,1,1.861.41ZM21.82,21.586a2.811,2.811,0,1,1-5.471-.905H12.237a2.811,2.811,0,1,1-5.321,0H6.527a2.862,2.862,0,0,1-2.858-2.858c0-.008,0-.016,0-.024s0-.016,0-.024a2.862,2.862,0,0,1,1.681-2.6L4.217,4.765A3.3,3.3,0,0,0,.953,1.91.953.953,0,0,1,.953,0,5.213,5.213,0,0,1,6.108,4.527l0,.021L7.239,14.916h7.006a.953.953,0,1,1,0,1.906H6.527a.954.954,0,0,0-.953.953c0,.008,0,.016,0,.024s0,.016,0,.024a.954.954,0,0,0,.953.953H19.009a2.814,2.814,0,0,1,2.811,2.811ZM9.576,20.681a.905.905,0,1,0,.905.905A.906.906,0,0,0,9.576,20.681Zm10.338.905a.905.905,0,1,0-.905.905A.906.906,0,0,0,19.915,21.586ZM8.012,6.075a.953.953,0,0,1,.067-1.346L12.519.711a2.688,2.688,0,0,1,3.642,0L20.6,4.729a.952.952,0,0,1-1.164,1.5V8.945a2.687,2.687,0,0,1-2.682,2.684H11.878A2.687,2.687,0,0,1,9.2,8.945V6.26a.953.953,0,0,1-1.183-.186ZM11.1,4.567c0,.019,0,.039,0,.058V8.944a.779.779,0,0,0,.777.779h4.878a.779.779,0,0,0,.777-.779V4.626a.97.97,0,0,1,.005-.1l-2.657-2.4,0,0a.792.792,0,0,0-1.074,0l0,0Zm0,0" transform="translate(0 0)"/></svg>