<svg xmlns="http://www.w3.org/2000/svg" width="24.802" height="24.806" viewBox="0 0 24.802 24.806">
  <path id="buy" d="M24.779,6.462l-1.677,7.6A3.864,3.864,0,0,1,19.328,17.1a.969.969,0,0,1,0-1.938,1.92,1.92,0,0,0,1.882-1.52l1.677-7.6a.969.969,0,1,1,1.892.417ZM22.186,21.948a2.858,2.858,0,1,1-5.563-.92H12.442a2.858,2.858,0,1,1-5.41,0h-.4A2.91,2.91,0,0,1,3.73,18.121c0-.008,0-.016,0-.024s0-.016,0-.024A2.91,2.91,0,0,1,5.44,15.425L4.288,4.845a3.358,3.358,0,0,0-3.319-2.9A.969.969,0,0,1,.969,0,5.3,5.3,0,0,1,6.21,4.6l0,.021L7.361,15.167h7.124a.969.969,0,0,1,0,1.938H6.637a.97.97,0,0,0-.969.969c0,.008,0,.016,0,.024s0,.016,0,.024a.97.97,0,0,0,.969.969H19.328a2.861,2.861,0,0,1,2.858,2.858Zm-12.449-.92a.92.92,0,1,0,.92.92A.921.921,0,0,0,9.737,21.028Zm10.512.92a.92.92,0,1,0-.92.92A.921.921,0,0,0,20.249,21.948ZM8.147,6.177a.969.969,0,0,1,.068-1.368L12.729.723a2.733,2.733,0,0,1,3.7,0l4.515,4.086a.968.968,0,0,1-1.183,1.526v2.76a2.732,2.732,0,0,1-2.727,2.729h-4.96A2.732,2.732,0,0,1,9.35,9.095V6.366a.969.969,0,0,1-1.2-.189Zm3.137-1.533c0,.02,0,.039,0,.059V9.094a.792.792,0,0,0,.79.792h4.96a.792.792,0,0,0,.79-.792V4.7a.986.986,0,0,1,.005-.1l-2.7-2.445,0,0a.806.806,0,0,0-1.092,0l0,0Zm0,0" transform="translate(0 0)" fill="#b3b7c0"/>
</svg>
