<svg xmlns="http://www.w3.org/2000/svg" width="24.397" height="24.397" viewBox="0 0 24.397 24.397"><defs><style>.a{fill:#b3b7c0;}</style></defs><path class="a" d="M20.585,24.4A3.816,3.816,0,0,0,24.4,20.585a.953.953,0,1,0-1.906,0,1.908,1.908,0,0,1-1.906,1.906H13.152V13.2h9.339V15.82a.953.953,0,1,0,1.906,0V3.812A3.816,3.816,0,0,0,20.585,0H3.812A3.816,3.816,0,0,0,0,3.812H0V20.585H0A3.816,3.816,0,0,0,3.812,24.4H20.585M1.906,3.812A1.908,1.908,0,0,1,3.812,1.906h7.433v9.387H1.906Zm9.339,18.679H3.812a1.908,1.908,0,0,1-1.906-1.906V13.2h9.339Zm1.906-11.2V1.906h7.433a1.908,1.908,0,0,1,1.906,1.906v7.481ZM9.339,6.576a.953.953,0,0,1-.953.953H7.529v.858a.953.953,0,1,1-1.906,0V7.529H4.765a.953.953,0,0,1,0-1.906h.858V4.765a.953.953,0,1,1,1.906,0v.858h.858A.953.953,0,0,1,9.339,6.576ZM3.812,17.821a.953.953,0,0,1,.953-.953H8.386a.953.953,0,0,1,0,1.906H4.765A.953.953,0,0,1,3.812,17.821Zm1.811-2.383h0a.953.953,0,1,1,1.906,0h0a.953.953,0,0,1-1.906,0ZM7.529,20.2h0a.953.953,0,1,1-1.906,0h0a.953.953,0,1,1,1.906,0ZM19.9,17.1l-.732.732.732.732a.953.953,0,0,1-1.348,1.348l-.732-.732-.732.732a.953.953,0,0,1-1.348-1.348l.732-.732L15.74,17.1a.953.953,0,0,1,1.348-1.348l.732.732.732-.732A.953.953,0,0,1,19.9,17.1Zm.686-10.521a.953.953,0,0,1-.953.953H16.011a.953.953,0,0,1,0-1.906h3.621A.953.953,0,0,1,20.585,6.576Z"/></svg>