<svg xmlns="http://www.w3.org/2000/svg" width="24.397" height="27.397" viewBox="0 0 24.397 27.397"><defs><style>.a{fill:#b3b7c0;}</style></defs><path class="a" d="M22.491,17.765V6.421a2.036,2.036,0,0,0-1.906-2.14H19.346v1.07a.959.959,0,1,1-1.906,0V4.281H13.1v1.07a1.017,1.017,0,0,1-.953,1.07,1.017,1.017,0,0,1-.953-1.07V4.281H6.909v1.07a1.017,1.017,0,0,1-.953,1.07A1.017,1.017,0,0,1,5,5.351V4.281H3.812a2.036,2.036,0,0,0-1.906,2.14v16.7a2.036,2.036,0,0,0,1.906,2.14H20.585a2.036,2.036,0,0,0,1.906-2.14.959.959,0,1,1,1.906,0A4.072,4.072,0,0,1,20.585,27.4H3.812A4.072,4.072,0,0,1,0,23.116V6.421A4.072,4.072,0,0,1,3.812,2.14H5V1.07A1.017,1.017,0,0,1,5.956,0a1.017,1.017,0,0,1,.953,1.07V2.14H11.2V1.07A1.017,1.017,0,0,1,12.151,0,1.017,1.017,0,0,1,13.1,1.07V2.14H17.44V1.07a.959.959,0,1,1,1.906,0V2.14h1.239A4.072,4.072,0,0,1,24.4,6.421V17.765a.959.959,0,1,1-1.906,0ZM6.909,11.237a1.017,1.017,0,0,0-.953-1.07A1.017,1.017,0,0,0,5,11.237H5a1.017,1.017,0,0,0,.953,1.07,1.017,1.017,0,0,0,.953-1.07Zm8.291,0a.959.959,0,1,0-1.906,0h0a.959.959,0,1,0,1.906,0Zm4.146,0a.959.959,0,1,0-1.906,0h0a.959.959,0,1,0,1.906,0ZM6.909,15.892a1.017,1.017,0,0,0-.953-1.07A1.017,1.017,0,0,0,5,15.892H5a1.017,1.017,0,0,0,.953,1.07,1.017,1.017,0,0,0,.953-1.07Zm-.953,3.585A1.017,1.017,0,0,0,5,20.548H5a1.017,1.017,0,0,0,.953,1.07,1.017,1.017,0,0,0,.953-1.07h0A1.017,1.017,0,0,0,5.956,19.478Zm5.1-8.241a1.017,1.017,0,0,0-.953-1.07,1.017,1.017,0,0,0-.953,1.07h0a1.017,1.017,0,0,0,.953,1.07,1.017,1.017,0,0,0,.953-1.07Zm0,4.655a1.017,1.017,0,0,0-.953-1.07,1.017,1.017,0,0,0-.953,1.07h0a1.017,1.017,0,0,0,.953,1.07,1.017,1.017,0,0,0,.953-1.07ZM10.1,19.478a1.017,1.017,0,0,0-.953,1.07h0a1.017,1.017,0,0,0,.953,1.07,1.017,1.017,0,0,0,.953-1.07h0A1.017,1.017,0,0,0,10.1,19.478Zm5.1-3.585a.959.959,0,1,0-1.906,0h0a.959.959,0,1,0,1.906,0Zm3.193-1.07a1.017,1.017,0,0,0-.953,1.07h0a.959.959,0,1,0,1.906,0h0A1.017,1.017,0,0,0,18.393,14.822Zm-4.146,4.655a1.017,1.017,0,0,0-.953,1.07h0a.959.959,0,1,0,1.906,0h0A1.017,1.017,0,0,0,14.247,19.478Z"/></svg>