<svg xmlns="http://www.w3.org/2000/svg" width="24.397" height="24.397" viewBox="0 0 24.397 24.397"><defs><style>.a{fill:#b3b7c0;}</style></defs><path class="a" d="M.954,24.4a.953.953,0,0,1-.884-1.31l2.164-5.353A10.539,10.539,0,0,1,0,11.245,10.749,10.749,0,0,1,3.6,3.265,12.668,12.668,0,0,1,12.2,0a12.668,12.668,0,0,1,8.6,3.265,10.749,10.749,0,0,1,3.6,7.981,10.582,10.582,0,0,1-1.935,6.081A.953.953,0,1,1,20.9,16.235a8.685,8.685,0,0,0,1.591-4.99c0-5.15-4.617-9.339-10.292-9.339S1.906,6.1,1.906,11.245a8.712,8.712,0,0,0,2.147,5.707.953.953,0,0,1,.158.975l-1.495,3.7,4.353-1.919a.953.953,0,0,1,.758,0,11.243,11.243,0,0,0,9.388-.3.953.953,0,1,1,.863,1.7,13.159,13.159,0,0,1-10.611.512l-6.131,2.7A.952.952,0,0,1,.954,24.4Z" transform="translate(0)"/></svg>