<svg xmlns="http://www.w3.org/2000/svg" width="24.397" height="19.394" viewBox="0 0 24.397 19.394"><defs><style>.a{fill:#b3b7c0;}</style></defs><path class="a" d="M20.735,56.161a.953.953,0,0,0-1.211-.114c-1.426.972-8.578,5.86-9.347,6.628a2.859,2.859,0,0,0,4.043,4.043c.769-.769,5.656-7.921,6.628-9.347A.953.953,0,0,0,20.735,56.161Zm-7.862,9.21a.953.953,0,0,1-1.348-1.348c.3-.3,2.329-1.743,4.828-3.48C14.616,63.042,13.167,65.073,12.872,65.371ZM24.4,64.7a12.15,12.15,0,0,1-2.067,6.772.953.953,0,0,1-1.2.331l-2-.953a.953.953,0,1,1,.819-1.721l1.228.585a10.259,10.259,0,0,0,.41-9.244.953.953,0,1,1,1.737-.784A12.1,12.1,0,0,1,24.4,64.7ZM5.669,69.569a.953.953,0,0,1-.439,1.274L3.277,71.8a.953.953,0,0,1-1.21-.327,12.195,12.195,0,0,1,15.146-17.9.953.953,0,1,1-.784,1.737,10.174,10.174,0,0,0-3.277-.863v1.434a.953.953,0,0,1-1.906,0V54.449a10.306,10.306,0,0,0-7.828,4.884l1.331.638a.953.953,0,1,1-.824,1.719l-1.348-.647A10.244,10.244,0,0,0,3.218,69.7l1.176-.574A.953.953,0,0,1,5.669,69.569Z" transform="translate(0 -52.499)"/></svg>