<svg xmlns="http://www.w3.org/2000/svg" width="20.74" height="24.499" viewBox="0 0 20.74 24.499">
  <g id="directory" transform="translate(-39.847 0.25)">
    <g id="Group_429" data-name="Group 429" transform="translate(40.097)">
      <g id="Group_428" data-name="Group 428" transform="translate(0)">
        <path id="Path_141" data-name="Path 141" d="M59.181,3.181H57.156V1.157A1.16,1.16,0,0,0,56,0H41.254A1.16,1.16,0,0,0,40.1,1.157V19.662a1.16,1.16,0,0,0,1.157,1.157h2.024v2.024A1.16,1.16,0,0,0,44.434,24h9.831a3.375,3.375,0,0,0,2-.793l3.231-3.041a3.071,3.071,0,0,0,.842-1.949V4.337A1.16,1.16,0,0,0,59.181,3.181Zm-15.9,1.157V19.951H41.254a.293.293,0,0,1-.289-.289V1.157a.293.293,0,0,1,.289-.289H56a.293.293,0,0,1,.289.289V3.181H44.434A1.16,1.16,0,0,0,43.278,4.337ZM58.9,19.534l-3.231,3.041a1.535,1.535,0,0,1-.248.181V20.1a.725.725,0,0,1,.723-.723h2.893A1.214,1.214,0,0,1,58.9,19.534Zm.569-1.318a1.349,1.349,0,0,1-.039.289H56.144a1.594,1.594,0,0,0-1.59,1.59v3a1.512,1.512,0,0,1-.289.035H44.434a.293.293,0,0,1-.289-.289V4.337a.293.293,0,0,1,.289-.289H59.18a.293.293,0,0,1,.289.289Z" transform="translate(-40.097)" fill="#b3b7c0" stroke="#b3b7c0" stroke-width="0.5"/>
      </g>
    </g>
    <g id="Group_431" data-name="Group 431" transform="translate(47.181 7.229)">
      <g id="Group_430" data-name="Group 430" transform="translate(0)">
        <path id="Path_142" data-name="Path 142" d="M200.054,154.216h-8.385a.434.434,0,0,0,0,.867h8.385a.434.434,0,0,0,0-.867Z" transform="translate(-191.235 -154.216)" fill="#b3b7c0" stroke="#b3b7c0" stroke-width="0.5"/>
      </g>
    </g>
    <g id="Group_433" data-name="Group 433" transform="translate(47.181 13.011)">
      <g id="Group_432" data-name="Group 432" transform="translate(0)">
        <path id="Path_143" data-name="Path 143" d="M200.054,277.59h-8.385a.434.434,0,0,0,0,.867h8.385a.434.434,0,0,0,0-.867Z" transform="translate(-191.235 -277.59)" fill="#b3b7c0" stroke="#b3b7c0" stroke-width="0.5"/>
      </g>
    </g>
    <g id="Group_435" data-name="Group 435" transform="translate(47.181 15.903)">
      <g id="Group_434" data-name="Group 434" transform="translate(0)">
        <path id="Path_144" data-name="Path 144" d="M196.3,339.277H191.67a.434.434,0,1,0,0,.867H196.3a.434.434,0,0,0,0-.867Z" transform="translate(-191.236 -339.277)" fill="#b3b7c0" stroke="#b3b7c0" stroke-width="0.5"/>
      </g>
    </g>
    <g id="Group_437" data-name="Group 437" transform="translate(47.181 10.12)">
      <g id="Group_436" data-name="Group 436" transform="translate(0)">
        <path id="Path_145" data-name="Path 145" d="M200.054,215.9h-8.385a.434.434,0,0,0,0,.867h8.385a.434.434,0,0,0,0-.867Z" transform="translate(-191.235 -215.903)" fill="#b3b7c0" stroke="#b3b7c0" stroke-width="0.5"/>
      </g>
    </g>
  </g>
</svg>
