<svg xmlns="http://www.w3.org/2000/svg" width="24.396" height="25.397" viewBox="0 0 24.396 25.397"><defs><style>.a{fill:#b3b7c0;}</style></defs><path class="a" d="M12.723,24.4a.973.973,0,0,1-.953.992H6.2a3.9,3.9,0,0,1-3.812-3.968V11.821l-.756.786a.927.927,0,0,1-1.348,0,1.021,1.021,0,0,1,0-1.4L10.3.792,10.34.754a2.773,2.773,0,0,1,3.811.008L14.193.8l8.024,8.47a1.021,1.021,0,0,1-.009,1.4.927.927,0,0,1-1.348-.01l-8-8.445a.924.924,0,0,0-1.235,0L4.288,9.843c0,.01,0,.019,0,.029V21.428A1.949,1.949,0,0,0,6.2,23.413H11.77a.973.973,0,0,1,.953.992ZM20.3,12.5a3.818,3.818,0,0,0-3.145,1.419A3.818,3.818,0,0,0,14.01,12.5a4.16,4.16,0,0,0-4.1,4.48c0,2.727,2.224,4.453,4.186,5.976a13.393,13.393,0,0,1,2.313,2.07.93.93,0,0,0,1.487,0,8.384,8.384,0,0,1,1.324-1.28,1.02,1.02,0,0,0,.159-1.393.928.928,0,0,0-1.338-.165c-.3.242-.6.5-.886.776a23.359,23.359,0,0,0-1.919-1.6c-1.681-1.3-3.419-2.653-3.419-4.385a2.232,2.232,0,0,1,2.192-2.5,1.969,1.969,0,0,1,1.826.912,2.753,2.753,0,0,1,.369,1.055.95.95,0,0,0,1.9,0,2.755,2.755,0,0,1,.369-1.055,1.969,1.969,0,0,1,1.826-.912,2.232,2.232,0,0,1,2.192,2.5A3.748,3.748,0,0,1,21.2,19.54a1.021,1.021,0,0,0,0,1.4.927.927,0,0,0,1.348,0A5.737,5.737,0,0,0,24.4,16.98a4.16,4.16,0,0,0-4.1-4.48Zm0,0" transform="translate(-0.001 0)"/></svg>