<svg xmlns="http://www.w3.org/2000/svg" width="22.667" height="25.675" viewBox="0 0 22.667 25.675">
  <g id="loan" transform="translate(-30)">
    <path id="Path_372" data-name="Path 372" d="M46.155,12.141a56.249,56.249,0,0,0-4.133-5.355,2.25,2.25,0,0,0-.653-3.333,2.118,2.118,0,0,1,.77-.684A1.433,1.433,0,0,0,42.491.818,1.62,1.62,0,0,0,41.074,0H36.4a1.62,1.62,0,0,0-1.417.818,1.433,1.433,0,0,0,.353,1.951,2.118,2.118,0,0,1,.77.684,2.251,2.251,0,0,0-.656,3.329C33.518,9.247,30,12.758,30,16.046c0,5.486,4.732,6.928,10.226,6.554a6.769,6.769,0,1,0,5.929-10.459ZM40.243,6.154H37.234a.75.75,0,0,1-.152-1.484.728.728,0,0,0,.239-.015h2.85a.747.747,0,0,0,.211.013.749.749,0,0,1-.139,1.486ZM36.4,1.5c4.937.023,4.722-.062,4.791.075a3.789,3.789,0,0,0-1.381,1.571H37.664A3.789,3.789,0,0,0,36.283,1.58.126.126,0,0,1,36.4,1.5ZM31.5,16.046c0-2.7,3.422-6.129,5.218-8.446a2.252,2.252,0,0,0,.512.059A22.854,22.854,0,0,0,40.749,7.6c1.055,1.364,2.571,3,3.714,4.688a6.783,6.783,0,0,0-3.977,2.553c-.742-.927-2-.955-2.251-1.4a.388.388,0,0,1,.165-.458.894.894,0,0,1,.885.065.752.752,0,1,0,1.02-1.106,2.075,2.075,0,0,0-.848-.458V11.42a.752.752,0,0,0-1.5,0v.111a1.888,1.888,0,0,0-1.033,2.636,2.7,2.7,0,0,0,1.535,1.126c.413.163,1.016.385.966.833a.7.7,0,0,1-.4.528,1.6,1.6,0,0,1-1.305-.189.752.752,0,0,0-.824,1.259,3.2,3.2,0,0,0,1.063.43v.094a.753.753,0,0,0,1.175.622,6.73,6.73,0,0,0,.375,2.26c-4.328.132-8-.747-8-5.084ZM45.9,24.171a5.265,5.265,0,1,1,5.265-5.265A5.271,5.271,0,0,1,45.9,24.171Z" fill="#b3b7c0"/>
    <path id="Path_373" data-name="Path 373" d="M303.284,330.193l-3.191,3.191a.752.752,0,0,0,1.064,1.064l3.191-3.191a.752.752,0,1,0-1.064-1.064Z" transform="translate(-256.339 -313.426)" fill="#b3b7c0"/>
    <path id="Path_374" data-name="Path 374" d="M300.46,330.489a.75.75,0,1,0-1.06,0A.75.75,0,0,0,300.46,330.489Z" transform="translate(-255.682 -312.7)" fill="#b3b7c0"/>
    <path id="Path_375" data-name="Path 375" d="M363.11,393.139a.75.75,0,1,0,1.06,0A.75.75,0,0,0,363.11,393.139Z" transform="translate(-316.197 -373.216)" fill="#b3b7c0"/>
  </g>
</svg>
