<svg xmlns="http://www.w3.org/2000/svg" width="23.799" height="24.096" viewBox="0 0 23.799 24.096">
  <g id="logout" transform="translate(23.799 24.104) rotate(180)">
    <path id="Path_329" data-name="Path 329" d="M287.623,209.514h-9.538a.753.753,0,1,1,0-1.506h9.538a.753.753,0,1,1,0,1.506Zm0,0" transform="translate(-264.578 -198.211)" fill="#b3b7c0"/>
    <path id="Path_330" data-name="Path 330" d="M400.757,137.008a.753.753,0,0,1-.532-1.286l3.233-3.233-3.233-3.233a.753.753,0,1,1,1.065-1.065l3.765,3.765a.753.753,0,0,1,0,1.065l-3.765,3.765A.748.748,0,0,1,400.757,137.008Zm0,0" transform="translate(-381.476 -121.94)" fill="#b3b7c0"/>
    <path id="Path_331" data-name="Path 331" d="M8.032,24.1a2.069,2.069,0,0,1-.622-.093L1.367,22A2.026,2.026,0,0,1,0,20.088V2.016A2.01,2.01,0,0,1,2.008.008,2.071,2.071,0,0,1,2.63.1L8.672,2.114a2.026,2.026,0,0,1,1.367,1.91V22.1A2.01,2.01,0,0,1,8.032,24.1ZM2.008,1.514a.5.5,0,0,0-.5.5V20.088a.522.522,0,0,0,.348.484l6.014,2a.545.545,0,0,0,.164.022.5.5,0,0,0,.5-.5V4.024a.522.522,0,0,0-.348-.484l-6.014-2a.545.545,0,0,0-.164-.022Zm0,0" transform="translate(0 0)" fill="#b3b7c0"/>
    <path id="Path_332" data-name="Path 332" d="M40.724,8.04a.753.753,0,0,1-.753-.753V2.769a1.257,1.257,0,0,0-1.255-1.255H27.421a.753.753,0,1,1,0-1.506H38.716a2.763,2.763,0,0,1,2.761,2.761V7.287A.753.753,0,0,1,40.724,8.04Zm0,0" transform="translate(-25.413)" fill="#b3b7c0"/>
    <path id="Path_333" data-name="Path 333" d="M186.1,285.372h-4.016a.753.753,0,1,1,0-1.506H186.1a1.257,1.257,0,0,0,1.255-1.255v-4.518a.753.753,0,0,1,1.506,0v4.518A2.763,2.763,0,0,1,186.1,285.372Zm0,0" transform="translate(-172.952 -264.28)" fill="#b3b7c0"/>
  </g>
</svg>
