<svg xmlns="http://www.w3.org/2000/svg" width="24.397" height="24.397" viewBox="0 0 24.397 24.397"><defs><style>.a{fill:#b3b7c0;}</style></defs><path class="a" d="M13.914,3.813h-9.1a.953.953,0,0,0-.953.953V8.53a.953.953,0,0,0,.953.953h9.1a.953.953,0,0,0,.953-.953V4.766A.953.953,0,0,0,13.914,3.813Zm-.953,3.764h-7.2V5.719h7.2V7.577ZM8.672,19.633a.953.953,0,0,1-.953.953H4.813a.953.953,0,0,1,0-1.906H7.719A.953.953,0,0,1,8.672,19.633Zm0-7.386a.953.953,0,0,1-.953.953H4.813a.953.953,0,1,1,0-1.906H7.719A.953.953,0,0,1,8.672,12.247Zm6.195,0a.953.953,0,0,1-.953.953H11.007a.953.953,0,1,1,0-1.906h2.907A.953.953,0,0,1,14.867,12.247Zm0,3.717a.953.953,0,0,1-.953.953H11.007a.953.953,0,1,1,0-1.906h2.907A.953.953,0,0,1,14.867,15.964Zm0,3.669a.953.953,0,0,1-.953.953H11.007a.953.953,0,1,1,0-1.906h2.907A.953.953,0,0,1,14.867,19.633ZM8.672,15.964a.953.953,0,0,1-.953.953H4.813a.953.953,0,1,1,0-1.906H7.719A.953.953,0,0,1,8.672,15.964Zm14.772.81a.953.953,0,0,0,.953-.953V13.438a.953.953,0,0,0-.953-.953H18.679V.954A.953.953,0,0,0,17.726,0H.953A.953.953,0,0,0,0,.954V20.586A3.816,3.816,0,0,0,3.812,24.4H20.607a3.812,3.812,0,0,0,3.79-3.812.953.953,0,1,0-1.906,0,1.906,1.906,0,0,1-1.906,1.906h0a1.908,1.908,0,0,1-1.906-1.906V14.391h3.812v1.43A.953.953,0,0,0,23.444,16.774ZM3.812,22.492a1.908,1.908,0,0,1-1.906-1.906V1.907H16.773V20.586a3.789,3.789,0,0,0,.512,1.906Z" transform="translate(0 -0.001)"/></svg>