<svg xmlns="http://www.w3.org/2000/svg" width="23.932" height="21.267" viewBox="0 0 23.932 21.267">
  <g id="Quote" transform="translate(-4027 251.141)">
    <g id="Group_523" data-name="Group 523" transform="translate(4031.262 -246.416)">
      <path id="Path_147" data-name="Path 147" d="M9.72,13.762H7.235v-2.21l1.041-2.1h.957L8.637,11H9.72Zm4.016,0H11.25v-2.21l1.041-2.1h.957L12.653,11h1.083Z" transform="translate(-7.235 -9.449)" fill="#b3b7c0"/>
      <path id="Path_148" data-name="Path 148" d="M16.264,12.465h2.485v2.209l-1.041,2.1h-.957l.595-1.551H16.264V12.465Zm4.015,0h2.486v2.209l-1.041,2.1h-.957l.594-1.551H20.277V12.465Z" transform="translate(-7.235 -9.449)" fill="#b3b7c0"/>
    </g>
    <path id="Path_149" data-name="Path 149" d="M2038.973,251.859h21.932v19.267l-5.83-4.164h-16.1Z" transform="translate(1989.027 -502)" fill="none" stroke="#b3b7c0" stroke-linecap="round" stroke-linejoin="round" stroke-width="2"/>
  </g>
</svg>
