<svg xmlns="http://www.w3.org/2000/svg" width="24.291" height="24.291" viewBox="0 0 24.291 24.291">
  <g id="referral" transform="translate(-126.75 0.25)">
    <path id="Path_127" data-name="Path 127" d="M39.29,32.221a3.464,3.464,0,0,0,1.1-1.547h.2a1.53,1.53,0,0,0,.767-2.856V26.07A3.073,3.073,0,0,0,38.291,23h-2.3a3.073,3.073,0,0,0-3.07,3.07v1.748a1.53,1.53,0,0,0,.767,2.856h.2a3.466,3.466,0,0,0,1.1,1.547A4.222,4.222,0,0,0,31,36.43v1.535a.384.384,0,0,0,.384.384H42.9a.384.384,0,0,0,.384-.384V36.43A4.222,4.222,0,0,0,39.29,32.221Zm-3.87.756,1.205,1.507-1.169,1.169-.532-2.66c.1-.008.2-.015.3-.015Zm2.456,0-.736.921-.736-.921Zm.983,0h.2c.1,0,.2.007.3.015l-.532,2.66-1.169-1.169Zm1.734-3.07h-.023a3.428,3.428,0,0,0,.023-.384V28.372a.767.767,0,0,1,0,1.535ZM33.686,26.07a2.3,2.3,0,0,1,2.3-2.3h2.3a2.3,2.3,0,0,1,2.3,2.3V27.6H39.058a.768.768,0,0,1-.767-.767V25.3h-.767v.384A1.921,1.921,0,0,1,35.6,27.6H33.686Zm0,3.837a.767.767,0,0,1,0-1.535v1.151a3.428,3.428,0,0,0,.023.384Zm.767-.384V28.372H35.6a2.68,2.68,0,0,0,2.038-.942,1.537,1.537,0,0,0,1.415.942h.767v1.151a2.686,2.686,0,0,1-5.372,0Zm8.058,8.058H31.767V36.43a3.459,3.459,0,0,1,2.4-3.289l.673,3.365a.384.384,0,0,0,.265.292.392.392,0,0,0,.111.016.384.384,0,0,0,.271-.112l1.647-1.647L38.787,36.7a.384.384,0,0,0,.648-.2l.673-3.365a3.46,3.46,0,0,1,2.4,3.29Z" transform="translate(107.512 -14.558)" fill="#b3b7c0" stroke="#b3b7c0" stroke-linejoin="bevel" stroke-width="0.5"/>
    <path id="Path_128" data-name="Path 128" d="M13.279,15.965V14.43A4.222,4.222,0,0,0,9.29,10.221a3.464,3.464,0,0,0,1.1-1.547h.2a1.53,1.53,0,0,0,.767-2.856V4.07A3.073,3.073,0,0,0,8.291,1h-2.3a3.073,3.073,0,0,0-3.07,3.07V5.818a1.53,1.53,0,0,0,.767,2.856h.2a3.466,3.466,0,0,0,1.1,1.547A4.222,4.222,0,0,0,1,14.43v1.535a.384.384,0,0,0,.384.384H12.9A.384.384,0,0,0,13.279,15.965ZM5.42,10.977l1.205,1.507L5.457,13.652l-.532-2.66c.1-.008.2-.015.3-.015Zm2.456,0L7.14,11.9,6.4,10.977Zm.983,0h.2c.1,0,.2.007.3.015l-.532,2.66L7.653,12.483Zm1.734-3.07h-.023a3.428,3.428,0,0,0,.023-.384V6.372a.767.767,0,0,1,0,1.535ZM3.686,4.07a2.3,2.3,0,0,1,2.3-2.3h2.3a2.3,2.3,0,0,1,2.3,2.3V5.6H9.058a.768.768,0,0,1-.767-.767V3.3H7.523v.384A1.921,1.921,0,0,1,5.6,5.6H3.686Zm0,3.837a.767.767,0,0,1,0-1.535V7.523a3.429,3.429,0,0,0,.023.384Zm.767-.384V6.372H5.6a2.68,2.68,0,0,0,2.038-.942,1.537,1.537,0,0,0,1.415.942h.767V7.523a2.686,2.686,0,0,1-5.372,0Zm8.058,8.058H1.767V14.43a3.459,3.459,0,0,1,2.4-3.289l.673,3.365a.384.384,0,0,0,.265.292.392.392,0,0,0,.111.016.384.384,0,0,0,.271-.112L7.14,13.054,8.787,14.7a.384.384,0,0,0,.648-.2l.673-3.365a3.46,3.46,0,0,1,2.4,3.29Z" transform="translate(126 -1)" fill="#b3b7c0" stroke="#b3b7c0" stroke-linejoin="bevel" stroke-width="0.5"/>
    <path id="Path_129" data-name="Path 129" d="M15.442,49.907a3.843,3.843,0,0,1-3.818-3.454h1.132a.384.384,0,0,0,.271-.655l-2.686-2.686a.383.383,0,0,0-.543,0L7.112,45.8a.384.384,0,0,0,.271.655H8.551a4.611,4.611,0,0,0,4.589,4.221h2.3a.384.384,0,1,0,0-.767ZM9.3,46.07a.384.384,0,0,0-.384-.384H8.31l1.76-1.76,1.76,1.76h-.609a.384.384,0,0,0-.384.384A4.6,4.6,0,0,0,12.887,49.9,3.843,3.843,0,0,1,9.3,46.07Z" transform="translate(122.302 -26.883)" fill="#b3b7c0" stroke="#b3b7c0" stroke-linejoin="bevel" stroke-width="0.5"/>
  </g>
</svg>
