<svg xmlns="http://www.w3.org/2000/svg" width="25.211" height="25.215" viewBox="0 0 25.211 25.215">
  <path id="Sell" d="M10.341,6.47V9.244a2.777,2.777,0,0,0,2.772,2.774h5.042a2.777,2.777,0,0,0,2.772-2.774V6.439a.984.984,0,0,0,1.2-1.552L17.54.734a2.778,2.778,0,0,0-3.764,0L9.187,4.887A.985.985,0,0,0,10.341,6.47ZM15.1,2.193l0,0a.819.819,0,0,1,1.11,0l0,0,2.746,2.485a1,1,0,0,0-.005.1V9.244a.8.8,0,0,1-.8.8H13.113a.8.8,0,0,1-.8-.8V4.78c0-.02,0-.04,0-.06Zm8.142,17.113V18.278a2.274,2.274,0,0,0-2.271-2.271H11.522a.984.984,0,0,0-.766,1.6l.2.183.017.017a.98.98,0,0,0,.549.168h4.924a.985.985,0,1,1,0,1.97H11.522A2.947,2.947,0,0,1,9.354,19L3.67,13.8l-.026-.024a.985.985,0,0,0-1.388,1.4l5.011,4.64.016.015a12.07,12.07,0,0,0,8.438,3.415h8.5a.985.985,0,1,1,0,1.97h-8.5a14.1,14.1,0,0,1-9.8-3.962L.906,16.609l-.021-.02A2.954,2.954,0,0,1,5.01,12.358l3.8,3.47a2.959,2.959,0,0,1,2.715-1.791H20.97a4.246,4.246,0,0,1,4.241,4.241v1.028a.985.985,0,0,1-1.97,0Zm0,0" transform="translate(0 0.001)" fill="#b3b7c0"/>
</svg>
