<svg xmlns="http://www.w3.org/2000/svg" width="24.397" height="23.489" viewBox="0 0 24.397 23.489"><defs><style>.a{fill:#b3b7c0;}</style></defs><path class="a" d="M6.287,33.016A2.619,2.619,0,0,1,4.742,32.5a2.588,2.588,0,0,1-.954-2.937l1.506-4.636a.72.72,0,0,0-.262-.807L1.089,21.259a2.643,2.643,0,0,1,1.544-4.777H7.508a.7.7,0,0,0,.686-.474L9.7,11.344a2.627,2.627,0,0,1,5,0L16.2,16.01a.7.7,0,0,0,.686.472h4.875a2.643,2.643,0,0,1,1.544,4.777L20.62,23.213a.953.953,0,0,1-1.12-1.542l2.689-1.954a.715.715,0,0,0,.261-.823.7.7,0,0,0-.685-.506H16.89a2.609,2.609,0,0,1-2.5-1.791l-1.507-4.668a.721.721,0,0,0-1.372,0L10.007,16.6a2.609,2.609,0,0,1-2.5,1.793H2.633a.7.7,0,0,0-.685.506.715.715,0,0,0,.261.823l3.944,2.865a2.62,2.62,0,0,1,.954,2.937L5.6,30.157a.721.721,0,0,0,1.11.807L10.654,28.1a2.62,2.62,0,0,1,3.088,0l3.944,2.865a.721.721,0,0,0,1.11-.807l-1.031-3.174a.953.953,0,1,1,1.812-.589l1.031,3.174A2.627,2.627,0,0,1,16.567,32.5l-3.944-2.865a.72.72,0,0,0-.848,0L7.831,32.5A2.62,2.62,0,0,1,6.287,33.016Z" transform="translate(0 -9.527)"/></svg>