<svg xmlns="http://www.w3.org/2000/svg" width="23.294" height="23.294" viewBox="0 0 23.294 23.294">
  <g id="team" transform="translate(0.25 0.25)">
    <g id="Group_425" data-name="Group 425">
      <path id="Path_138" data-name="Path 138" d="M22.46,12.683a.334.334,0,0,0,.334-.334v-.817A2.135,2.135,0,0,0,20.661,9.4h-.247a2.582,2.582,0,1,0-3.462,0H16.7a2.133,2.133,0,0,0-1.886,1.135q-.067-.021-.136-.04L12.9,10.017V9.068A2.943,2.943,0,0,0,14.338,6.6h.387a1.053,1.053,0,0,0,.244-2.078V3.617a3.617,3.617,0,0,0-7.234,0v.935A1.053,1.053,0,0,0,8.069,6.6h.387A2.943,2.943,0,0,0,9.894,9.068v.949l-1.782.477q-.069.018-.136.04A2.133,2.133,0,0,0,6.09,9.4H5.843a2.582,2.582,0,1,0-3.462,0H2.133A2.135,2.135,0,0,0,0,11.532v.817a.334.334,0,0,0,.668,0v-.817a1.467,1.467,0,0,1,1.465-1.465H6.09a1.465,1.465,0,0,1,1.266.729,3.488,3.488,0,0,0-1.825,3.061V15.65H.668V13.907a.334.334,0,1,0-.668,0v2.077a.334.334,0,0,0,.334.334H7.847a4.17,4.17,0,0,0-.578,1.422.334.334,0,0,0,.654.133,3.544,3.544,0,1,1,0,1.417.334.334,0,0,0-.654.133,4.212,4.212,0,1,0,7.678-3.105H22.46a.334.334,0,0,0,.334-.334V13.907a.334.334,0,1,0-.668,0V15.65H17.263V13.857A3.488,3.488,0,0,0,15.437,10.8a1.465,1.465,0,0,1,1.266-.729h3.957a1.467,1.467,0,0,1,1.465,1.465v.817a.334.334,0,0,0,.334.334ZM2.2,7.484A1.915,1.915,0,1,1,4.118,9.4H4.1A1.917,1.917,0,0,1,2.2,7.484ZM10.688,11.6l-.323.269a.566.566,0,0,1-.907-.284l-.2-.707.691-.185a1.51,1.51,0,0,0,.735.906Zm2.152-.906.691.185-.2.707a.565.565,0,0,1-.907.283l-.323-.269a1.51,1.51,0,0,0,.735-.906Zm2.27-5.141a.386.386,0,0,1-.386.386h-.386V5.165h.386A.386.386,0,0,1,15.111,5.551ZM8.4,3.617a2.949,2.949,0,1,1,5.9,0V4.5H13.2a.566.566,0,0,1-.566-.566.334.334,0,1,0-.668,0A.566.566,0,0,1,11.4,4.5H8.4Zm-.72,1.934a.386.386,0,0,1,.386-.386h.386v.771H8.069A.386.386,0,0,1,7.683,5.551Zm1.439.989V5.165H11.4a1.23,1.23,0,0,0,.9-.39,1.23,1.23,0,0,0,.9.39h.476V6.54a2.275,2.275,0,0,1-4.549,0ZM11.4,9.482a2.932,2.932,0,0,0,.835-.122v.912a.835.835,0,0,1-1.671,0V9.361A2.932,2.932,0,0,0,11.4,9.482Zm5.2,4.375V15.65H14.419a4.2,4.2,0,0,0-6.042,0H6.2V13.857a2.818,2.818,0,0,1,2.085-2.718l.333-.089.2.712a1.233,1.233,0,0,0,1.978.618l.6-.5.6.5a1.233,1.233,0,0,0,1.978-.618l.2-.712.333.089A2.819,2.819,0,0,1,16.595,13.857Zm.173-6.373A1.915,1.915,0,1,1,18.689,9.4h-.014A1.917,1.917,0,0,1,16.768,7.484Z" transform="translate(0 0)" fill="#b3b7c0" stroke="#b3b7c0" stroke-linecap="round" stroke-width="0.5"/>
      <path id="Path_139" data-name="Path 139" d="M204.654,376.914a1.112,1.112,0,0,0,.792-.328l1.718-1.718a1.119,1.119,0,0,0-1.583-1.583l-.927.927a1.119,1.119,0,0,0-1.577,1.589l.786.785a1.112,1.112,0,0,0,.791.328Zm-1.1-2.224a.452.452,0,0,1,.639,0l.23.23a.334.334,0,0,0,.472,0l1.163-1.163a.452.452,0,1,1,.639.639l-1.718,1.718a.452.452,0,0,1-.639,0l-.785-.785A.452.452,0,0,1,203.549,374.69Z" transform="translate(-193.723 -356.354)" fill="#b3b7c0" stroke="#b3b7c0" stroke-linecap="round" stroke-width="0.5"/>
    </g>
  </g>
</svg>
