<svg xmlns="http://www.w3.org/2000/svg" width="24.5" height="24.925" viewBox="0 0 24.5 24.925">
  <g id="to-do-list" transform="translate(0.25 0.25)">
    <path id="Path_130" data-name="Path 130" d="M20.961,0H3.039A2.915,2.915,0,0,0,0,2.764v17.63a1.508,1.508,0,0,0,1.572,1.43H8.454a.479.479,0,1,0,0-.953H1.572a.5.5,0,0,1-.524-.477V2.764A1.91,1.91,0,0,1,3.039.953H18.667a2.613,2.613,0,0,0-.746,1.811V18.12a.841.841,0,0,1-.877.8.873.873,0,0,1-.832-.545l-.79-2.155A1.628,1.628,0,0,0,13.871,15.2a1.568,1.568,0,0,0-1.636,1.487v.371H9.52a.479.479,0,1,0,0,.953h2.716v2.371a4.861,4.861,0,0,0,.448,2.039l.771,1.682a.528.528,0,0,0,.484.293.567.567,0,0,0,.2-.037.462.462,0,0,0,.282-.623l-.771-1.682a3.989,3.989,0,0,1-.368-1.672V16.688a.563.563,0,0,1,.587-.534.585.585,0,0,1,.557.365l.79,2.155a1.916,1.916,0,0,0,1.826,1.2,1.846,1.846,0,0,0,1.925-1.75V9.95l.7.635a5.7,5.7,0,0,1,1.937,4.248V19.9a8.3,8.3,0,0,1-.945,3.818.459.459,0,0,0,.249.635.548.548,0,0,0,.7-.226A9.183,9.183,0,0,0,22.655,19.9V14.833A6.608,6.608,0,0,0,20.41,9.911L18.969,8.6V8.148h3.459A1.508,1.508,0,0,0,24,6.719V2.764A2.915,2.915,0,0,0,20.961,0Zm1.991,6.719a.5.5,0,0,1-.524.477H18.969V2.764a2,2,0,0,1,3.983,0Zm0,0" fill="#b3b7c0" stroke="#b3b7c0" stroke-width="0.5"/>
    <path id="Path_131" data-name="Path 131" d="M195.485,438a.485.485,0,1,0,.343.142A.488.488,0,0,0,195.485,438Zm0,0" transform="translate(-184.747 -417.186)" fill="#b3b7c0" stroke="#b3b7c0" stroke-width="0.5"/>
    <path id="Path_132" data-name="Path 132" d="M57.74,54.97a.971.971,0,0,0-.97-.97H54.638a.971.971,0,0,0-.97.97V57.1a.971.971,0,0,0,.97.97h2.133a.971.971,0,0,0,.97-.97Zm-.97,2.133H54.638V54.97h2.133V57.1Zm0,0" transform="translate(-51.066 -51.382)" fill="#b3b7c0" stroke="#b3b7c0" stroke-width="0.5"/>
    <path id="Path_133" data-name="Path 133" d="M57.74,174.97a.971.971,0,0,0-.97-.97H54.638a.971.971,0,0,0-.97.97V177.1a.971.971,0,0,0,.97.97h2.133a.971.971,0,0,0,.97-.97Zm-.97,2.133H54.638V174.97h2.133V177.1Zm0,0" transform="translate(-51.066 -165.737)" fill="#b3b7c0" stroke="#b3b7c0" stroke-width="0.5"/>
    <path id="Path_134" data-name="Path 134" d="M56.771,294H54.638a.97.97,0,0,0-.97.97V297.1a.97.97,0,0,0,.97.97h2.133a.971.971,0,0,0,.97-.97V294.97A.971.971,0,0,0,56.771,294Zm0,3.1H54.638V294.97h2.133V297.1Zm0,0" transform="translate(-51.066 -280.038)" fill="#b3b7c0" stroke="#b3b7c0" stroke-width="0.5"/>
    <path id="Path_135" data-name="Path 135" d="M221.221,118.97a.485.485,0,1,0,0-.97h-3.342a.485.485,0,0,0,0,.97Zm0,0" transform="translate(-205.797 -112.381)" fill="#b3b7c0" stroke="#b3b7c0" stroke-width="0.5"/>
    <path id="Path_136" data-name="Path 136" d="M172.153,118.97a.485.485,0,1,0-.343-.142A.488.488,0,0,0,172.153,118.97Zm0,0" transform="translate(-162.641 -112.381)" fill="#b3b7c0" stroke="#b3b7c0" stroke-width="0.5"/>
    <path id="Path_137" data-name="Path 137" d="M172.149,238.97h5.559a.485.485,0,0,0,0-.97h-5.559a.485.485,0,1,0,0,.97Zm0,0" transform="translate(-162.388 -226.667)" fill="#b3b7c0" stroke="#b3b7c0" stroke-width="0.5"/>
  </g>
</svg>
