<svg id="Univ" xmlns="http://www.w3.org/2000/svg" width="24.123" height="24.118" viewBox="0 0 24.123 24.118">
  <path id="Path_140" data-name="Path 140" d="M23.3,19.689a2.57,2.57,0,0,0-1.758-.683,2.628,2.628,0,0,0-.351.035l-2.14-3.566a4.249,4.249,0,0,0-.614-7.095L20.33,5.222a2.637,2.637,0,0,0,.351.035A2.6,2.6,0,1,0,18.8,4.431L16.738,7.868c-.119-.007-.233-.033-.353-.033a4.267,4.267,0,0,0-2.447.773l-7.046-4.7a3.338,3.338,0,0,0,.041-.374,3.466,3.466,0,1,0-.669,2.018l6.481,4.32a4.25,4.25,0,0,0-.57,1.395h-5.4a2.578,2.578,0,1,0,0,1.719h5.4a4.25,4.25,0,0,0,.569,1.395l-6.48,4.32a3.422,3.422,0,1,0,.669,2.018,3.335,3.335,0,0,0-.038-.374l7.046-4.7a4.125,4.125,0,0,0,3.577.6l2.148,3.575a2.57,2.57,0,1,0,3.632-.142ZM20.681,1.821a.859.859,0,1,1-.859.859A.859.859,0,0,1,20.681,1.821ZM3.5,5.258A1.719,1.719,0,1,1,5.214,3.539,1.719,1.719,0,0,1,3.5,5.258Zm.859,7.733a.859.859,0,1,1,.859-.859A.859.859,0,0,1,4.355,12.991ZM3.5,22.443a1.719,1.719,0,1,1,1.719-1.719A1.719,1.719,0,0,1,3.5,22.443ZM16.385,14.71a2.578,2.578,0,1,1,2.578-2.578A2.578,2.578,0,0,1,16.385,14.71Zm5.156,7.733a.859.859,0,1,1,.859-.859A.859.859,0,0,1,21.54,22.443Z" transform="translate(0 -0.043)" fill="#b3b7c0"/>
</svg>
