<svg id="email" xmlns="http://www.w3.org/2000/svg" width="15.777" height="10.847" viewBox="0 0 15.777 10.847">
  <g id="Group_49" data-name="Group 49" transform="translate(10.458 2)">
    <g id="Group_48" data-name="Group 48">
      <path id="Path_78" data-name="Path 78" d="M339.392,148.4l5.319,3.363V144.9Z" transform="translate(-339.392 -144.896)" fill="#b3b7c0"/>
    </g>
  </g>
  <g id="Group_51" data-name="Group 51" transform="translate(0 2)">
    <g id="Group_50" data-name="Group 50">
      <path id="Path_79" data-name="Path 79" d="M0,144.9v6.867L5.319,148.4Z" transform="translate(0 -144.896)" fill="#b3b7c0"/>
    </g>
  </g>
  <g id="Group_53" data-name="Group 53" transform="translate(0.03 0)">
    <g id="Group_52" data-name="Group 52">
      <path id="Path_80" data-name="Path 80" d="M15.722,80H1.916a.974.974,0,0,0-.956.839l7.859,5.178,7.859-5.178A.974.974,0,0,0,15.722,80Z" transform="translate(-0.96 -80)" fill="#b3b7c0"/>
    </g>
  </g>
  <g id="Group_55" data-name="Group 55" transform="translate(0.032 6.099)">
    <g id="Group_54" data-name="Group 54">
      <path id="Path_81" data-name="Path 81" d="M10.548,277.921l-1.4.919a.5.5,0,0,1-.542,0l-1.4-.92-6.191,3.916a.972.972,0,0,0,.955.832H15.784a.972.972,0,0,0,.955-.832Z" transform="translate(-1.024 -277.92)" fill="#b3b7c0"/>
    </g>
  </g>
</svg>
