<svg xmlns="http://www.w3.org/2000/svg" width="39.218" height="30.503" viewBox="0 0 39.218 30.503">
  <g id="photo" transform="translate(0 -61.201)">
    <path id="Path_408" data-name="Path 408" d="M36.728,61.2H2.49A2.49,2.49,0,0,0,0,63.691V89.214A2.49,2.49,0,0,0,2.49,91.7H36.728a2.49,2.49,0,0,0,2.49-2.49V63.691A2.49,2.49,0,0,0,36.728,61.2Zm0,2.49V81.8l-4.907-4.462a1.867,1.867,0,0,0-2.577.062l-4.966,4.966-9.793-11.7a1.867,1.867,0,0,0-2.847-.019L2.49,81.281V63.691ZM26.145,70.227a3.424,3.424,0,1,1,3.424,3.424A3.423,3.423,0,0,1,26.145,70.227Z" transform="translate(0 0)" fill="#a9b5c9"/>
  </g>
</svg>
