<svg id="delete_1_" data-name="delete (1)" xmlns="http://www.w3.org/2000/svg" width="13.381" height="19.257" viewBox="0 0 13.381 19.257">
  <path id="Path_120" data-name="Path 120" d="M12.253,2.177H10.19V2.069A2.071,2.071,0,0,0,8.122,0H5.259A2.071,2.071,0,0,0,3.19,2.069v.108H1.128A1.128,1.128,0,0,0,0,3.3v.86a.376.376,0,0,0,.376.376H13a.376.376,0,0,0,.376-.376V3.3a1.128,1.128,0,0,0-1.128-1.128ZM4.319,2.069a.941.941,0,0,1,.94-.94H8.122a.941.941,0,0,1,.94.94v.108H4.319Zm0,0" transform="translate(0 0)" fill="#fff"/>
  <path id="Path_121" data-name="Path 121" d="M12.949,150.738l.912,13.062a.564.564,0,0,0,.563.525h9.458a.564.564,0,0,0,.563-.525l.911-13.062Zm3.971,11.668H16.9a.564.564,0,0,1-.563-.54l-.376-8.838a.564.564,0,1,1,1.127-.048l.376,8.838a.564.564,0,0,1-.54.588Zm2.8-.564a.564.564,0,0,1-1.128,0V153a.564.564,0,1,1,1.128,0Zm2.256.024a.564.564,0,0,1-.563.54h-.024a.564.564,0,0,1-.54-.588l.376-8.838a.564.564,0,0,1,1.127.048Zm0,0" transform="translate(-12.462 -145.069)" fill="#fff"/>
</svg>
