<svg xmlns="http://www.w3.org/2000/svg" width="25.203" height="25.207" viewBox="0 0 25.203 25.207">
  <g id="link_1_" data-name="link (1)" transform="translate(-0.039 0)">
    <g id="Group_1097" data-name="Group 1097" transform="translate(0.039 8.103)">
      <g id="Group_1096" data-name="Group 1096" transform="translate(0)">
        <path id="Path_402" data-name="Path 402" d="M15.417,166.336a5.719,5.719,0,0,0-.987-.794,5.881,5.881,0,0,0-7.33.794l-5.343,5.347A5.881,5.881,0,0,0,10.07,180l4.41-4.41a.42.42,0,0,0-.3-.718h-.168a7.07,7.07,0,0,1-2.688-.521.42.42,0,0,0-.458.092L7.7,177.623a2.522,2.522,0,1,1-3.566-3.566l5.364-5.36a2.52,2.52,0,0,1,3.562,0,1.722,1.722,0,0,0,2.361,0,1.664,1.664,0,0,0,0-2.361Z" transform="translate(-0.039 -164.614)" fill="#a9b5c9"/>
      </g>
    </g>
    <g id="Group_1099" data-name="Group 1099" transform="translate(9.365 0)">
      <g id="Group_1098" data-name="Group 1098" transform="translate(0 0)">
        <path id="Path_403" data-name="Path 403" d="M203.656,1.723a5.881,5.881,0,0,0-8.317,0l-4.406,4.4a.422.422,0,0,0,.307.718h.155a7.057,7.057,0,0,1,2.684.525.42.42,0,0,0,.458-.092L197.7,4.117a2.522,2.522,0,1,1,3.566,3.566l-3.94,3.936-.034.038-1.378,1.369a2.52,2.52,0,0,1-3.562,0,1.722,1.722,0,0,0-2.361,0,1.675,1.675,0,0,0,0,2.369,5.831,5.831,0,0,0,1.68,1.176c.088.042.176.076.265.113s.181.067.269.1.181.063.269.088l.248.067c.168.042.336.076.508.1a5.848,5.848,0,0,0,.626.059h.319l.252-.029c.092,0,.189-.025.3-.025h.143l.29-.042.134-.025.244-.05h.046a5.88,5.88,0,0,0,2.726-1.546l5.347-5.347A5.881,5.881,0,0,0,203.656,1.723Z" transform="translate(-189.502 0)" fill="#a9b5c9"/>
      </g>
    </g>
  </g>
</svg>
