<svg id="link" xmlns="http://www.w3.org/2000/svg" width="30.664" height="30.664" viewBox="0 0 30.664 30.664">
  <g id="Group_532" data-name="Group 532" transform="translate(0 0)">
    <g id="Group_531" data-name="Group 531" transform="translate(0)">
      <path id="Path_397" data-name="Path 397" d="M11.719,189.7l-3.613,3.613a3.833,3.833,0,1,1-5.421-5.42l7.228-7.228a3.832,3.832,0,0,1,5.42,0,1.278,1.278,0,1,0,1.807-1.807,6.387,6.387,0,0,0-9.033,0L.878,186.085a6.388,6.388,0,1,0,9.035,9.034l3.613-3.613a1.278,1.278,0,1,0-1.807-1.807Z" transform="translate(0.993 -166.327)" fill="#a9b5c9"/>
      <path id="Path_398" data-name="Path 398" d="M207.293.871a6.389,6.389,0,0,0-9.035,0l-4.335,4.335a1.278,1.278,0,0,0,1.807,1.807l4.335-4.335a3.833,3.833,0,1,1,5.421,5.42l-7.95,7.95a3.832,3.832,0,0,1-5.42,0,1.278,1.278,0,0,0-1.807,1.807,6.387,6.387,0,0,0,9.034,0l7.95-7.95A6.387,6.387,0,0,0,207.293.871Z" transform="translate(-178.501 1)" fill="#a9b5c9"/>
    </g>
  </g>
</svg>
