<svg xmlns="http://www.w3.org/2000/svg" width="18.333" height="20" viewBox="0 0 18.333 20">
  <g id="share" transform="translate(0 0)">
    <path id="Path_108" data-name="Path 108" d="M320.085,18.708A2.708,2.708,0,1,1,317.376,16,2.708,2.708,0,0,1,320.085,18.708Zm0,0" transform="translate(-302.376 -15.375)" fill="#fff"/>
    <path id="Path_109" data-name="Path 109" d="M302,6.667a3.333,3.333,0,1,1,3.333-3.333A3.337,3.337,0,0,1,302,6.667Zm0-5.417a2.083,2.083,0,1,0,2.083,2.083A2.086,2.086,0,0,0,302,1.25Zm0,0" transform="translate(-287.001)" fill="#fff"/>
    <path id="Path_110" data-name="Path 110" d="M320.085,360.041a2.708,2.708,0,1,1-2.708-2.708A2.708,2.708,0,0,1,320.085,360.041Zm0,0" transform="translate(-302.376 -343.374)" fill="#fff"/>
    <path id="Path_111" data-name="Path 111" d="M302,348a3.333,3.333,0,1,1,3.333-3.333A3.337,3.337,0,0,1,302,348Zm0-5.417a2.083,2.083,0,1,0,2.083,2.083A2.086,2.086,0,0,0,302,342.582Zm0,0" transform="translate(-287.001 -327.999)" fill="#fff"/>
    <path id="Path_112" data-name="Path 112" d="M21.417,189.376a2.708,2.708,0,1,1-2.708-2.708A2.708,2.708,0,0,1,21.417,189.376Zm0,0" transform="translate(-15.375 -179.376)" fill="#fff"/>
    <path id="Path_113" data-name="Path 113" d="M3.333,177.335A3.333,3.333,0,1,1,6.667,174a3.337,3.337,0,0,1-3.333,3.333Zm0-5.417A2.083,2.083,0,1,0,5.417,174a2.086,2.086,0,0,0-2.083-2.083Zm0,0" transform="translate(0 -164.001)" fill="#fff"/>
    <path id="Path_114" data-name="Path 114" d="M115.183,96.291a.833.833,0,0,1-.413-1.558l7.732-4.408a.833.833,0,1,1,.825,1.448l-7.733,4.408a.828.828,0,0,1-.412.109Zm0,0" transform="translate(-109.882 -86.69)" fill="#fff"/>
    <path id="Path_115" data-name="Path 115" d="M122.936,272.295a.828.828,0,0,1-.412-.109l-7.733-4.408a.833.833,0,0,1,.825-1.448l7.733,4.408a.833.833,0,0,1-.413,1.558Zm0,0" transform="translate(-109.904 -255.819)" fill="#fff"/>
  </g>
</svg>
