<svg xmlns="http://www.w3.org/2000/svg" width="35.124" height="20.636" viewBox="0 0 35.124 20.636">
  <g id="video-camera" transform="translate(0 -96.512)">
    <g id="Group_1093" data-name="Group 1093" transform="translate(0 96.512)">
      <g id="Group_1092" data-name="Group 1092">
        <path id="Path_400" data-name="Path 400" d="M19.867,96.512H3.843A3.854,3.854,0,0,0,0,100.355v12.95a3.854,3.854,0,0,0,3.843,3.843H19.867a3.854,3.854,0,0,0,3.843-3.843v-12.95A3.83,3.83,0,0,0,19.867,96.512Z" transform="translate(0 -96.512)" fill="#a9b5c9"/>
      </g>
    </g>
    <g id="Group_1095" data-name="Group 1095" transform="translate(25.632 98.564)">
      <g id="Group_1094" data-name="Group 1094">
        <path id="Path_401" data-name="Path 401" d="M348.152,123.909a1.958,1.958,0,0,0-.653.269l-5.995,3.459v8.915l6.033,3.459a2.285,2.285,0,0,0,3.151-.845,2.348,2.348,0,0,0,.307-1.153V126.138A2.313,2.313,0,0,0,348.152,123.909Z" transform="translate(-341.504 -123.847)" fill="#a9b5c9"/>
      </g>
    </g>
  </g>
</svg>
