<svg id="video-camera" xmlns="http://www.w3.org/2000/svg" width="35.101" height="30.85" viewBox="0 0 35.101 30.85">
  <path id="Path_399" data-name="Path 399" d="M34.616,44.867a1.028,1.028,0,0,0-1-.05L26.737,48.2V47.111a3.776,3.776,0,0,0-2.431-3.524,7.2,7.2,0,1,0-10.937-9.093A7.2,7.2,0,1,0,2.431,43.587,3.776,3.776,0,0,0,0,47.111V58.08A3.775,3.775,0,0,0,3.771,61.85h19.2a3.775,3.775,0,0,0,3.771-3.771V56.989l6.882,3.384a1.028,1.028,0,0,0,1.482-.923V45.74a1.028,1.028,0,0,0-.485-.873ZM19.539,33.057A5.142,5.142,0,1,1,14.4,38.2,5.148,5.148,0,0,1,19.539,33.057ZM14.506,43.34H12.231A7.247,7.247,0,0,0,13.369,41.9,7.247,7.247,0,0,0,14.506,43.34ZM2.057,38.2A5.142,5.142,0,1,1,7.2,43.34,5.148,5.148,0,0,1,2.057,38.2ZM24.68,58.08a1.716,1.716,0,0,1-1.714,1.714H3.771A1.716,1.716,0,0,1,2.057,58.08V47.111A1.716,1.716,0,0,1,3.771,45.4h19.2a1.716,1.716,0,0,1,1.714,1.714V58.08Zm8.364-.281-6.307-3.1v-4.2l6.307-3.1Z" transform="translate(0 -31)" fill="#a9b5c9"/>
  <path id="Path_400" data-name="Path 400" d="M63.085,97.17A3.085,3.085,0,1,0,60,94.085,3.089,3.089,0,0,0,63.085,97.17Zm0-4.113a1.028,1.028,0,1,1-1.028,1.028A1.03,1.03,0,0,1,63.085,93.057Z" transform="translate(-55.887 -86.887)" fill="#a9b5c9"/>
  <path id="Path_401" data-name="Path 401" d="M243.085,97.17A3.085,3.085,0,1,0,240,94.085,3.089,3.089,0,0,0,243.085,97.17Zm0-4.113a1.028,1.028,0,1,1-1.028,1.028A1.03,1.03,0,0,1,243.085,93.057Z" transform="translate(-223.546 -86.887)" fill="#a9b5c9"/>
  <path id="Path_402" data-name="Path 402" d="M198.57,271h-7.541A1.028,1.028,0,0,0,190,272.028v6.17a1.028,1.028,0,0,0,1.028,1.028h7.541A1.028,1.028,0,0,0,199.6,278.2v-6.17A1.028,1.028,0,0,0,198.57,271Zm-1.028,6.17h-5.485v-4.113h5.485Z" transform="translate(-176.974 -254.546)" fill="#a9b5c9"/>
  <path id="Path_403" data-name="Path 403" d="M65.827,391h-4.8a1.028,1.028,0,1,0,0,2.057h4.8a1.028,1.028,0,1,0,0-2.057Z" transform="translate(-55.887 -366.32)" fill="#a9b5c9"/>
  <path id="Path_404" data-name="Path 404" d="M65.827,331h-4.8a1.028,1.028,0,1,0,0,2.057h4.8a1.028,1.028,0,1,0,0-2.057Z" transform="translate(-55.887 -310.433)" fill="#a9b5c9"/>
</svg>
