<svg xmlns="http://www.w3.org/2000/svg" width="11.16" height="9.285" viewBox="0 0 11.16 9.285">
  <g id="right-arrow" transform="translate(0 -41.346)">
    <g id="Group_230" data-name="Group 230" transform="translate(0 41.346)">
      <path id="Path_134" data-name="Path 134" d="M10.982,45.555l-4.03-4.03a.613.613,0,0,0-.864,0l-.366.366a.606.606,0,0,0-.178.432.618.618,0,0,0,.178.437l2.351,2.356H.6a.6.6,0,0,0-.6.6v.517a.619.619,0,0,0,.6.627H8.1L5.722,49.23a.6.6,0,0,0,0,.858l.366.365a.613.613,0,0,0,.864,0l4.03-4.03a.616.616,0,0,0,0-.867Z" transform="translate(0 -41.346)" fill="#fff"/>
    </g>
  </g>
</svg>
