<svg id="checked" xmlns="http://www.w3.org/2000/svg" width="12.449" height="10.949" viewBox="0 0 12.449 10.949">
  <g id="Group_660" data-name="Group 660">
    <g id="Group_659" data-name="Group 659">
      <path id="Path_372" data-name="Path 372" d="M10.935,35.936a.333.333,0,0,0-.664.048c.008.113.012.229.012.345A4.809,4.809,0,1,1,5.474,31.52a4.764,4.764,0,0,1,2.884.961.333.333,0,0,0,.4-.532,5.425,5.425,0,0,0-3.284-1.094,5.474,5.474,0,1,0,5.474,5.474C10.949,36.2,10.944,36.065,10.935,35.936Z" transform="translate(0 -30.855)" fill="#424d63"/>
    </g>
  </g>
  <g id="Group_662" data-name="Group 662" transform="translate(1.528 0.372)">
    <g id="Group_661" data-name="Group 661">
      <path id="Path_373" data-name="Path 373" d="M73.4,46.544a1.3,1.3,0,0,0-1.835,0L66.77,51.337l-1.7-1.7a1.3,1.3,0,0,0-1.835,1.835L66.162,54.4a.861.861,0,0,0,1.216,0l6.02-6.02A1.3,1.3,0,0,0,73.4,46.544Zm-.47,1.365-6.02,6.02a.2.2,0,0,1-.275,0L63.707,51a.632.632,0,0,1,.894-.894l1.748,1.748a.6.6,0,0,0,.843,0l4.841-4.841a.632.632,0,0,1,.894.894Z" transform="translate(-62.857 -46.165)" fill="#424d63"/>
    </g>
  </g>
</svg>
