<svg xmlns="http://www.w3.org/2000/svg" width="14.645" height="14.427" viewBox="0 0 14.645 14.427">
  <g id="favorites" transform="translate(0 0)">
    <g id="Group_664" data-name="Group 664" transform="translate(0.846 0)">
      <g id="Group_663" data-name="Group 663">
        <path id="Path_374" data-name="Path 374" d="M42.235,9.471A.966.966,0,0,0,41.7,7.823l-3.2-.466a.193.193,0,0,1-.145-.106l-1.433-2.9a.966.966,0,0,0-1.732,0l-1.433,2.9a.193.193,0,0,1-.145.106l-3.2.466a.966.966,0,0,0-.535,1.647l2.319,2.26a.193.193,0,0,1,.056.171l-.547,3.191a.966.966,0,0,0,1.4,1.018L35.961,14.6a.193.193,0,0,1,.18,0l2.866,1.507a.966.966,0,0,0,1.4-1.018L39.861,11.9a.193.193,0,0,1,.056-.171ZM39.1,12.032l.547,3.191a.193.193,0,0,1-.28.2L36.5,13.92a.966.966,0,0,0-.9,0l-2.866,1.507a.193.193,0,0,1-.28-.2L33,12.032a.965.965,0,0,0-.278-.855l-2.319-2.26a.193.193,0,0,1,.107-.329l3.2-.466a.966.966,0,0,0,.727-.528l1.433-2.9a.193.193,0,0,1,.346,0h0l1.433,2.9a.965.965,0,0,0,.727.528l3.2.466a.193.193,0,0,1,.107.329l-2.319,2.26A.965.965,0,0,0,39.1,12.032Z" transform="translate(-29.574 -3.81)" fill="#424d63"/>
      </g>
    </g>
    <g id="Group_666" data-name="Group 666" transform="translate(10.812 0.464)">
      <g id="Group_665" data-name="Group 665">
        <path id="Path_375" data-name="Path 375" d="M379.024,20.119a.386.386,0,0,0-.54.085l-.41.564a.386.386,0,1,0,.625.454l.41-.564A.386.386,0,0,0,379.024,20.119Z" transform="translate(-378.001 -20.045)" fill="#424d63"/>
      </g>
    </g>
    <g id="Group_668" data-name="Group 668" transform="translate(2.648 0.462)">
      <g id="Group_667" data-name="Group 667">
        <path id="Path_376" data-name="Path 376" d="M93.7,20.69l-.41-.564a.386.386,0,1,0-.625.454l.41.564a.386.386,0,1,0,.625-.454Z" transform="translate(-92.59 -19.966)" fill="#424d63"/>
      </g>
    </g>
    <g id="Group_670" data-name="Group 670" transform="translate(0 8.4)">
      <g id="Group_669" data-name="Group 669">
        <path id="Path_377" data-name="Path 377" d="M1.418,297.76a.386.386,0,0,0-.487-.248l-.663.216a.386.386,0,1,0,.239.735l.663-.216A.386.386,0,0,0,1.418,297.76Z" transform="translate(0 -297.493)" fill="#424d63"/>
      </g>
    </g>
    <g id="Group_672" data-name="Group 672" transform="translate(6.936 12.956)">
      <g id="Group_671" data-name="Group 671">
        <path id="Path_378" data-name="Path 378" d="M242.885,456.786a.386.386,0,0,0-.386.386v.7a.386.386,0,1,0,.773,0v-.7A.386.386,0,0,0,242.885,456.786Z" transform="translate(-242.499 -456.786)" fill="#424d63"/>
      </g>
    </g>
    <g id="Group_674" data-name="Group 674" transform="translate(13.208 8.401)">
      <g id="Group_673" data-name="Group 673">
        <path id="Path_379" data-name="Path 379" d="M462.953,297.748l-.663-.216a.386.386,0,0,0-.239.735l.664.216a.386.386,0,0,0,.239-.735Z" transform="translate(-461.783 -297.513)" fill="#424d63"/>
      </g>
    </g>
  </g>
</svg>
