<svg xmlns="http://www.w3.org/2000/svg" width="12.004" height="17.561" viewBox="0 0 12.004 17.561">
  <g id="flag" transform="translate(0 0)">
    <g id="Group_685" data-name="Group 685" transform="translate(0 0)">
      <path id="Path_385" data-name="Path 385" d="M90.648,6.091,92.94,3.017a.4.4,0,0,0-.325-.647H82.745V1.854a.971.971,0,1,0-.81,0v14.9h-.513a.4.4,0,0,0,0,.81h1.836a.4.4,0,1,0,0-.81h-.513V9.8H92.6a.4.4,0,0,0,.325-.647ZM82.34,1.214a.242.242,0,1,1,.242-.242A.243.243,0,0,1,82.34,1.214Zm.4,7.774h0V7.643h1.29a.4.4,0,0,0,0-.81h-1.29v-1.5h2.019a.4.4,0,1,0,0-.81H82.745V3.18h9.064l-1.99,2.669a.405.405,0,0,0,0,.484l1.977,2.655h-9.05Z" transform="translate(-81.017)" fill="#424d63"/>
    </g>
  </g>
</svg>
