<svg id="trash" xmlns="http://www.w3.org/2000/svg" width="11.207" height="12.954" viewBox="0 0 11.207 12.954">
  <g id="Group_687" data-name="Group 687" transform="translate(0)">
    <g id="Group_686" data-name="Group 686">
      <path id="Path_386" data-name="Path 386" d="M45.43,1.221H41.948V.606A.606.606,0,0,0,41.343,0H38.92a.606.606,0,0,0-.605.606v.614H34.833a.3.3,0,1,0,0,.61H35.4l.385,10.029a1.135,1.135,0,0,0,1.138,1.095h6.421a1.135,1.135,0,0,0,1.138-1.095L44.865,1.83h.565a.3.3,0,1,0,0-.61ZM38.924.61h2.414v.611H38.924ZM43.87,11.836a.527.527,0,0,1-.528.508H36.921a.527.527,0,0,1-.528-.508L36.008,1.83h8.247Z" transform="translate(-34.528)" fill="#424d63"/>
    </g>
  </g>
  <g id="Group_689" data-name="Group 689" transform="translate(3.137 4.295)">
    <g id="Group_688" data-name="Group 688">
      <path id="Path_387" data-name="Path 387" d="M159.144,170.053a.3.3,0,0,0-.3-.3h-.006a.3.3,0,0,0-.3.311l.1,4.975a.3.3,0,0,0,.3.3h.006a.3.3,0,0,0,.3-.311Z" transform="translate(-158.535 -169.754)" fill="#424d63"/>
    </g>
  </g>
  <g id="Group_691" data-name="Group 691" transform="translate(5.298 4.295)">
    <g id="Group_690" data-name="Group 690">
      <path id="Path_388" data-name="Path 388" d="M244.254,169.753a.3.3,0,0,0-.3.3v4.975a.3.3,0,0,0,.61,0v-4.975A.3.3,0,0,0,244.254,169.753Z" transform="translate(-243.949 -169.753)" fill="#424d63"/>
    </g>
  </g>
  <g id="Group_693" data-name="Group 693" transform="translate(7.364 4.295)">
    <g id="Group_692" data-name="Group 692">
      <path id="Path_389" data-name="Path 389" d="M325.99,169.753a.3.3,0,0,0-.311.3l-.1,4.975a.3.3,0,0,0,.3.311h.006a.3.3,0,0,0,.3-.3l.1-4.975A.3.3,0,0,0,325.99,169.753Z" transform="translate(-325.584 -169.753)" fill="#424d63"/>
    </g>
  </g>
</svg>
