<svg xmlns="http://www.w3.org/2000/svg" width="6.61" height="12.748" viewBox="0 0 6.61 12.748">
  <path id="Dollar" d="M170.11,99.343a14.989,14.989,0,0,0-1.562-.7,3.416,3.416,0,0,1-.854-.481.746.746,0,0,1,.185-1.326,1.463,1.463,0,0,1,.524-.107,3.961,3.961,0,0,1,1.97.391c.309.15.412.1.519-.219.112-.343.206-.691.3-1.034a.36.36,0,0,0-.236-.481,4.835,4.835,0,0,0-1.245-.369c-.562-.09-.562-.09-.567-.657,0-.8,0-.8-.8-.8-.116,0-.232,0-.348,0-.373.013-.438.077-.446.451,0,.167,0,.339,0,.506,0,.5,0,.494-.485.665a2.673,2.673,0,0,0-1.953,2.477,2.534,2.534,0,0,0,1.434,2.425,16.009,16.009,0,0,0,1.794.807,2.618,2.618,0,0,1,.652.386.9.9,0,0,1-.215,1.571,2.157,2.157,0,0,1-1.15.15,5.1,5.1,0,0,1-1.751-.524c-.322-.167-.416-.124-.528.227-.094.3-.18.609-.262.914-.112.412-.073.511.322.7a5.751,5.751,0,0,0,1.58.455c.425.069.442.086.446.528,0,.2,0,.4,0,.6a.358.358,0,0,0,.386.4q.444.006.888,0a.342.342,0,0,0,.369-.382c0-.275.013-.549,0-.824a.433.433,0,0,1,.378-.494,3,3,0,0,0,1.554-1A2.814,2.814,0,0,0,170.11,99.343Z" transform="translate(-165.034 -93.556)" fill="#fff"/>
</svg>
