<svg xmlns="http://www.w3.org/2000/svg" width="24" height="24" viewBox="0 0 24 24">
  <g id="Shuffle" transform="translate(-1778 -362)">
    <rect id="Marius_Ciocirlan" data-name="Marius Ciocirlan" width="24" height="24" rx="6" transform="translate(1778 362)" fill="rgba(0,0,0,0.45)"/>
    <g id="Group_137" data-name="Group 137" transform="translate(1783.937 367.521)">
      <path id="Path_123" data-name="Path 123" d="M16.59,15.457l-2.958,2.324a.634.634,0,0,1-1.025-.5V15.8H5.845a.845.845,0,0,1,0-1.69h6.761V12.634a.634.634,0,0,1,1.025-.5l2.958,2.324a.634.634,0,0,1,0,1Z" transform="translate(-5 -6.082)" fill="#fff"/>
      <path id="Path_124" data-name="Path 124" d="M15.987,8.8H9.226v1.479a.634.634,0,0,1-1.025.5L5.243,8.457a.634.634,0,0,1,0-1L8.2,5.135a.634.634,0,0,1,1.025.5V7.113h6.761a.845.845,0,0,1,0,1.69Z" transform="translate(-5 -4.998)" fill="#fff"/>
    </g>
  </g>
</svg>
