<svg xmlns="http://www.w3.org/2000/svg" width="12.742" height="11.149" viewBox="0 0 12.742 11.149">
  <g id="like" transform="translate(0 -1)">
    <path id="Path_378" data-name="Path 378" d="M0,.8V7.167a.8.8,0,0,0,.8.8H3.185V0H.8A.8.8,0,0,0,0,.8Z" transform="translate(0 4.185)" fill="#fff"/>
    <path id="Path_379" data-name="Path 379" d="M7.289,4.012H4.937a.4.4,0,0,1-.348-.591l.829-1.494A1.194,1.194,0,0,0,4.663.188L4.078.042a.4.4,0,0,0-.392.12L.511,3.689A1.99,1.99,0,0,0,0,5.021V9.188a1.993,1.993,0,0,0,1.991,1.991H5.952a2,2,0,0,0,1.92-1.464l.85-3.9a1.471,1.471,0,0,0-1.433-1.8Z" transform="translate(3.982 0.97)" fill="#fff"/>
  </g>
</svg>
