<svg xmlns="http://www.w3.org/2000/svg" width="24" height="24" viewBox="0 0 24 24">
  <g id="Video" transform="translate(-1812 -362)">
    <rect id="Marius_Ciocirlan" data-name="Marius Ciocirlan" width="24" height="24" rx="6" transform="translate(1812 362)" fill="rgba(0,0,0,0.45)"/>
    <g id="video-camera" transform="translate(1817.3 369.813)">
      <g id="Group_134" data-name="Group 134" transform="translate(0 0)">
        <g id="Group_133" data-name="Group 133" transform="translate(0 0)">
          <path id="Path_125" data-name="Path 125" d="M7.676,96.512H1.485A1.489,1.489,0,0,0,0,98v5a1.489,1.489,0,0,0,1.485,1.485H7.676A1.489,1.489,0,0,0,9.161,103V98A1.48,1.48,0,0,0,7.676,96.512Z" transform="translate(0 -96.512)" fill="#fff"/>
        </g>
      </g>
      <g id="Group_136" data-name="Group 136" transform="translate(9.903 0.793)">
        <g id="Group_135" data-name="Group 135" transform="translate(0 0)">
          <path id="Path_126" data-name="Path 126" d="M344.073,123.871a.757.757,0,0,0-.252.1l-2.316,1.336v3.445l2.331,1.336a.883.883,0,0,0,1.217-.327.907.907,0,0,0,.119-.445v-4.588A.894.894,0,0,0,344.073,123.871Z" transform="translate(-341.504 -123.847)" fill="#fff"/>
        </g>
      </g>
    </g>
  </g>
</svg>
