<svg xmlns="http://www.w3.org/2000/svg" width="17.173" height="17.171" viewBox="0 0 17.173 17.171">
  <path id="add-group" d="M9.946,11.757a6.368,6.368,0,0,0-1.338-.714A3.414,3.414,0,0,0,9.719,8.791a5.049,5.049,0,0,1,6.4-.524.671.671,0,1,0,.768-1.1,6.375,6.375,0,0,0-1.338-.714,3.421,3.421,0,1,0-4.606-.008q-.141.054-.279.115a6.37,6.37,0,0,0-1.181.679A3.42,3.42,0,1,0,4,11.029,6.451,6.451,0,0,0,.1,15.043a2.012,2.012,0,0,0,1.916,2.629H7.852a.671.671,0,0,0,0-1.341H2.017a.671.671,0,0,1-.639-.877,5.175,5.175,0,0,1,4.917-3.5,5.017,5.017,0,0,1,2.884.9.671.671,0,1,0,.767-1.1Zm3.305-9.915a2.079,2.079,0,1,1-2.079,2.079,2.082,2.082,0,0,1,2.079-2.079ZM6.309,6.432A2.079,2.079,0,1,1,4.23,8.512,2.082,2.082,0,0,1,6.309,6.432Zm10.866,8.053a.671.671,0,0,1-.671.671H14.66V17a.671.671,0,1,1-1.341,0V15.156H11.474a.671.671,0,0,1,0-1.341h1.844V11.97a.671.671,0,0,1,1.341,0v1.844H16.5a.671.671,0,0,1,.671.671Zm0,0" transform="translate(-0.003 -0.501)" fill="#fff"/>
</svg>
