<svg id="envelope" xmlns="http://www.w3.org/2000/svg" width="16.651" height="12.488" viewBox="0 0 16.651 12.488">
  <g id="Group_103" data-name="Group 103" transform="translate(0 0)">
    <g id="Group_102" data-name="Group 102">
      <path id="Path_94" data-name="Path 94" d="M7.036,65.013c2.285,1.935,6.3,5.34,7.474,6.4a.7.7,0,0,0,1.007,0c1.18-1.063,5.189-4.468,7.475-6.4a.347.347,0,0,0,.049-.479A1.378,1.378,0,0,0,21.952,64H8.076a1.377,1.377,0,0,0-1.089.535A.347.347,0,0,0,7.036,65.013Z" transform="translate(-6.689 -64)" fill="#fff"/>
      <path id="Path_95" data-name="Path 95" d="M16.45,126.444a.345.345,0,0,0-.37.05c-2.534,2.148-5.769,4.9-6.786,5.819a1.4,1.4,0,0,1-1.936,0c-1.085-.977-4.717-4.065-6.786-5.819a.347.347,0,0,0-.571.265v8.724a1.389,1.389,0,0,0,1.388,1.388H15.263a1.389,1.389,0,0,0,1.388-1.388v-8.724A.347.347,0,0,0,16.45,126.444Z" transform="translate(0 -124.382)" fill="#fff"/>
    </g>
  </g>
</svg>
