<svg xmlns="http://www.w3.org/2000/svg" width="253" height="246.364" viewBox="0 0 253 246.364">
  <g id="Group_1075" data-name="Group 1075" transform="translate(-1187 -386)">
    <g id="Group_1074" data-name="Group 1074">
      <g id="chatting" transform="translate(1242.777 448.404)">
        <path id="Path_394" data-name="Path 394" d="M112.966,31.622H18.475A18.494,18.494,0,0,0,0,50.1v82.8a4.79,4.79,0,0,0,7.566,3.9L33.88,118.021a12.882,12.882,0,0,1,7.518-2.406H99.277A18.494,18.494,0,0,0,117.752,97.14V36.408A4.788,4.788,0,0,0,112.966,31.622ZM89.717,89.6h-55.3a4.786,4.786,0,1,1,0-9.573h55.3a4.786,4.786,0,0,1,0,9.573Zm0-22.336h-55.3a4.786,4.786,0,0,1,0-9.573h55.3a4.786,4.786,0,0,1,0,9.573Z" transform="translate(0 -31.622)" fill="#cfd8e8"/>
        <path id="Path_395" data-name="Path 395" d="M260.722,166.44v82.8a4.789,4.789,0,0,1-7.566,3.9l-26.315-18.772a12.882,12.882,0,0,0-7.518-2.406H161.445A18.5,18.5,0,0,1,142.97,213.48v-9.075h53.657a28.079,28.079,0,0,0,28.048-28.048v-28.4h17.572A18.5,18.5,0,0,1,260.722,166.44Z" transform="translate(-97.35 -110.84)" fill="#a9b5c9"/>
      </g>
      <path id="Polygon_11" data-name="Polygon 11" d="M5.613,2.714A2,2,0,0,1,9,2.714l3.7,5.92a2,2,0,0,1-1.7,3.06h-7.4a2,2,0,0,1-1.7-3.06Z" transform="translate(1203.036 439.102) rotate(45)" fill="#a9b5c9"/>
      <g id="Polygon_12" data-name="Polygon 12" transform="matrix(-0.978, 0.208, -0.208, -0.978, 1348.433, 627.198)" fill="none">
        <path d="M10.774,2.4a2,2,0,0,1,3.3,0l8.62,12.539a2,2,0,0,1-1.648,3.133H3.8a2,2,0,0,1-1.648-3.133Z" stroke="none"/>
        <path d="M 12.42234802246094 3.530274391174316 L 3.802066802978516 16.06887245178223 C 3.802066802978516 16.06887435913086 3.802066802978516 16.06887435913086 3.802057266235352 16.06887435913086 L 21.04262733459473 16.06887435913086 C 21.04262924194336 16.06887054443359 21.04263114929199 16.06886672973633 21.04264831542969 16.06888389587402 L 12.42234802246094 3.530274391174316 M 12.42234802246094 1.530275344848633 C 13.04771518707275 1.530275344848633 13.67308330535889 1.819253921508789 14.07042789459229 2.397214889526367 L 22.69072723388672 14.93582439422607 C 23.6030387878418 16.26282501220703 22.65299797058105 18.06887435913086 21.04263877868652 18.06887435913086 L 3.802057266235352 18.06887435913086 C 2.19169807434082 18.06887435913086 1.241657257080078 16.26282501220703 2.15397834777832 14.93582439422607 L 10.77426815032959 2.397214889526367 C 11.17161273956299 1.819253921508789 11.79698085784912 1.530275344848633 12.42234802246094 1.530275344848633 Z" stroke="none" fill="#53e773"/>
      </g>
      <g id="Ellipse_67" data-name="Ellipse 67" transform="translate(1349 420)" fill="none" stroke="#53e773" stroke-width="2">
        <circle cx="10.5" cy="10.5" r="10.5" stroke="none"/>
        <circle cx="10.5" cy="10.5" r="9.5" fill="none"/>
      </g>
      <circle id="Ellipse_68" data-name="Ellipse 68" cx="6" cy="6" r="6" transform="translate(1288 386)" fill="#cfd8e8"/>
      <circle id="Ellipse_69" data-name="Ellipse 69" cx="7.5" cy="7.5" r="7.5" transform="translate(1425 505)" fill="#c7d0de"/>
      <circle id="Ellipse_70" data-name="Ellipse 70" cx="3.5" cy="3.5" r="3.5" transform="translate(1187 536)" fill="#53e773"/>
    </g>
  </g>
</svg>
