<svg id="notification" xmlns="http://www.w3.org/2000/svg" width="20.668" height="22.547" viewBox="0 0 20.668 22.547">
  <path id="Path_326" data-name="Path 326" d="M136.855,420.228a3.527,3.527,0,0,1-3.523-3.523.7.7,0,1,1,1.409,0,2.114,2.114,0,0,0,4.228,0,.7.7,0,1,1,1.409,0A3.527,3.527,0,0,1,136.855,420.228Zm0,0" transform="translate(-127.46 -397.68)" fill="#424d63"/>
  <path id="Path_327" data-name="Path 327" d="M17.145,80.911H1.644A1.644,1.644,0,0,1,.575,78.017a.649.649,0,0,1,.075-.056A6.314,6.314,0,0,0,2.818,73.2V70.576A6.584,6.584,0,0,1,9.395,64a2.83,2.83,0,0,1,.463.028.7.7,0,1,1-.231,1.389,1.479,1.479,0,0,0-.232-.008,5.173,5.173,0,0,0-5.167,5.167V73.2A7.727,7.727,0,0,1,1.5,79.089c-.014.011-.026.022-.041.032a.232.232,0,0,0-.05.146.237.237,0,0,0,.235.235h15.5a.238.238,0,0,0,.235-.235.224.224,0,0,0-.051-.146l-.04-.032A7.725,7.725,0,0,1,14.562,73.2V72.174a.7.7,0,1,1,1.409,0V73.2a6.316,6.316,0,0,0,2.171,4.766.684.684,0,0,1,.072.055,1.644,1.644,0,0,1-1.069,2.893Zm0,0" transform="translate(0 -61.182)" fill="#424d63"/>
  <path id="Path_328" data-name="Path 328" d="M260.7,9.395a4.7,4.7,0,1,1,4.7-4.7A4.7,4.7,0,0,1,260.7,9.395Zm0-7.985A3.288,3.288,0,1,0,263.985,4.7,3.292,3.292,0,0,0,260.7,1.409Zm0,0" transform="translate(-244.726)" fill="#424d63"/>
</svg>
