<svg xmlns="http://www.w3.org/2000/svg" width="28" height="27.198" viewBox="0 0 28 27.198">
  <path id="Bath" d="M-1795.893,951.049a1.5,1.5,0,0,1-1.179-.581l-2.07-2.694-.155.017a6.041,6.041,0,0,1-.627.033h-14.134a6.022,6.022,0,0,1-.626-.033l-.155-.017-2.07,2.694a1.5,1.5,0,0,1-1.178.581,1.483,1.483,0,0,1-1.24-.666,1.483,1.483,0,0,1-.129-1.4l1.217-2.873-.127-.133a5.931,5.931,0,0,1-1.65-4.112v-2.322h-.416a.558.558,0,0,1-.558-.558v-3.112a.559.559,0,0,1,.558-.558h1.945v-8.3a3.171,3.171,0,0,1,3.167-3.167h.769a3.175,3.175,0,0,1,3.138,2.745l.032.242h.335a2.138,2.138,0,0,1,2.135,2.135v1.411a.558.558,0,0,1-.558.558h-5.084l-.029,0a.557.557,0,0,1-.529-.556v-1.411a2.138,2.138,0,0,1,2.135-2.135h.5l-.094-.351a2.055,2.055,0,0,0-1.981-1.52h-.769a2.054,2.054,0,0,0-2.051,2.052v8.3h23.824a.558.558,0,0,1,.557.558v3.112a.558.558,0,0,1-.557.558h-.416v2.322a5.931,5.931,0,0,1-1.65,4.112l-.127.133,1.217,2.873a1.483,1.483,0,0,1-.13,1.4A1.483,1.483,0,0,1-1795.893,951.049Zm-1.022-4.042a5.98,5.98,0,0,1-.7.351l-.333.141,1.76,2.29a.372.372,0,0,0,.294.145.365.365,0,0,0,.309-.166.366.366,0,0,0,.032-.35l-1.09-2.571Zm-21.514,2.411a.364.364,0,0,0,.032.35.366.366,0,0,0,.309.166.372.372,0,0,0,.294-.145l1.76-2.29-.333-.141a5.922,5.922,0,0,1-.7-.351l-.274-.161Zm-.472-7.553a4.85,4.85,0,0,0,4.844,4.844h14.134a4.85,4.85,0,0,0,4.844-4.844v-2.321H-1818.9Zm-.974-3.437h25.769v-2h-25.769Zm6.9-10.474a1.021,1.021,0,0,0-1.019,1.02v.854h3.968v-.854a1.021,1.021,0,0,0-1.02-1.02Z" transform="translate(1820.99 -923.851)" fill="#b3b7c0"/>
</svg>
