<svg xmlns="http://www.w3.org/2000/svg" width="30" height="21.328" viewBox="0 0 30 21.328">
  <path id="Path_345" data-name="Path 345" d="M-2364.182,960.7h-.417v-3.789a2,2,0,0,0-1.927-1.991v-8.127a2,2,0,0,0-1.992-1.992h-20.235a2,2,0,0,0-1.992,1.992v8.127a2,2,0,0,0-1.927,1.991V960.7h-.417a.547.547,0,0,0-.546.547v1.927a.547.547,0,0,0,.546.547h.417v1.862a.547.547,0,0,0,.546.547h1.445a.548.548,0,0,0,.536-.439l.394-1.969h22.229l.394,1.969a.548.548,0,0,0,.536.44h1.445a.547.547,0,0,0,.547-.547v-1.862h.417a.548.548,0,0,0,.547-.547v-1.927A.548.548,0,0,0-2364.182,960.7Zm-2.223,3.02h.712v1.315h-.45Zm-24.723,1.315h-.45v-1.315h.713Zm20.683-13.971h-5.781a2,2,0,0,0-1.992,1.992v1.862h-.834v-1.862a2,2,0,0,0-1.992-1.992h-5.781a2,2,0,0,0-1.992,1.992v1.862h-.833v-8.125a.9.9,0,0,1,.9-.9h20.235a.9.9,0,0,1,.9.9v8.125h-.833v-1.862A2,2,0,0,0-2370.444,951.065Zm-6.68,1.992a.9.9,0,0,1,.9-.9h5.781a.9.9,0,0,1,.9.9v1.862h-7.578Zm-10.6,0a.9.9,0,0,1,.9-.9h5.781a.9.9,0,0,1,.9.9v1.862h-7.578Zm-2.956,2.956h24.089a.9.9,0,0,1,.9.9V960.7h-25.885v-3.789A.9.9,0,0,1-2390.679,956.013Zm25.952,5.781v.834h-27.813v-.834Z" transform="translate(2393.634 -944.802)" fill="#b3b7c0"/>
</svg>
