<svg xmlns="http://www.w3.org/2000/svg" width="100" height="100" viewBox="0 0 100 100">
  <g id="Best_Properties" data-name="Best Properties" transform="translate(-680 -1854)">
    <rect id="Rectangle_23" data-name="Rectangle 23" width="100" height="100" rx="7" transform="translate(680 1854)" fill="#eefff1"/>
    <path id="investment" d="M58.291,29.148a2.284,2.284,0,0,1-3.23-.018l-1.8-1.822V37.916a2.284,2.284,0,1,1-4.568,0V22.842c0-.05,0-.1.007-.147L31.319,5.117a2.282,2.282,0,0,0-2.961,0L10.774,22.661c0,.022,0,.044,0,.066V38.144a2.284,2.284,0,0,1-4.568,0V27.217L4.4,29.026a2.284,2.284,0,0,1-3.227-3.233L25.184,1.825c.031-.031.062-.06.1-.089a6.846,6.846,0,0,1,9.134.019c.034.03.066.062.1.094l23.8,24.069a2.284,2.284,0,0,1-.018,3.23Zm-7.316,17.9a2.284,2.284,0,0,0-2.284,2.284A4.573,4.573,0,0,1,44.123,53.9H15.345a2.284,2.284,0,1,0,0,4.568H44.123a9.146,9.146,0,0,0,9.136-9.136A2.284,2.284,0,0,0,50.975,47.052ZM17.45,45h.008a1.426,1.426,0,0,1,1.015.42L21.152,48.1A5.961,5.961,0,0,0,25.4,49.855h.03a5.956,5.956,0,0,0,4.251-1.794L39.784,37.842v4.528a2.284,2.284,0,1,0,4.568,0V35.632a5.717,5.717,0,0,0-5.71-5.71H31.79a2.284,2.284,0,1,0,0,4.568h4.885L26.423,44.856a1.425,1.425,0,0,1-1.018.43H25.4a1.424,1.424,0,0,1-1.014-.42L21.7,42.186a5.961,5.961,0,0,0-4.244-1.759h-.033a5.966,5.966,0,0,0-4.264,1.809L1.145,54.6A2.284,2.284,0,1,0,4.42,57.78L16.432,45.426A1.426,1.426,0,0,1,17.45,45Zm0,0" transform="translate(700.829 1874.529)" fill="#53e773"/>
  </g>
</svg>
