<svg id="Garage" xmlns="http://www.w3.org/2000/svg" width="28" height="27.893" viewBox="0 0 28 27.893">
  <path id="Path_335" data-name="Path 335" d="M-2314.651,1638.914a1.751,1.751,0,0,1-1.66-1.827v-1.14h-7.219v1.14a1.751,1.751,0,0,1-1.659,1.827h-1.552a1.751,1.751,0,0,1-1.659-1.827v-1.149l-.2-.064a1.818,1.818,0,0,1-1.192-1.75v-3.572a1.747,1.747,0,0,1,1.654-1.823h1.387l1.3-3.4a2.65,2.65,0,0,1,2.411-1.809h6.231a2.65,2.65,0,0,1,2.411,1.809l1.305,3.4h1.385a1.748,1.748,0,0,1,1.656,1.823v3.572a1.819,1.819,0,0,1-1.193,1.75l-.2.064v1.149a1.751,1.751,0,0,1-1.66,1.827Zm-.556-1.828a.586.586,0,0,0,.556.612h1.552a.587.587,0,0,0,.555-.612v-1.141h-2.664Zm-12.089,0a.586.586,0,0,0,.555.612h1.552a.586.586,0,0,0,.555-.612v-1.141h-2.663Zm-.842-7.142a.582.582,0,0,0-.551.607v3.572a.581.581,0,0,0,.551.607h16.436a.582.582,0,0,0,.552-.607v-3.572a.582.582,0,0,0-.552-.607Zm5.1-5.213a1.546,1.546,0,0,0-1.394,1.066l-1.125,2.932h11.267l-1.124-2.932a1.546,1.546,0,0,0-1.394-1.066Z" transform="translate(2333.919 -1615.417)" fill="#b3b7c0"/>
  <path id="Path_336" data-name="Path 336" d="M-2217.359,1751.8a.608.608,0,0,1-.608-.608.608.608,0,0,1,.608-.608h6.072a.609.609,0,0,1,.608.608.609.609,0,0,1-.608.608Z" transform="translate(2228.323 -1733.225)" fill="#b3b7c0"/>
  <path id="Path_337" data-name="Path 337" d="M-2069.661,1751.8a.622.622,0,0,1-.608-.621.533.533,0,0,1,.16-.392.635.635,0,0,1,.448-.2.621.621,0,0,1,.608.622.535.535,0,0,1-.16.392A.638.638,0,0,1-2069.661,1751.8Z" transform="translate(2089.721 -1733.225)" fill="#b3b7c0"/>
  <path id="Path_338" data-name="Path 338" d="M-2271.146,1751.8a.622.622,0,0,1-.609-.621.537.537,0,0,1,.16-.392.637.637,0,0,1,.449-.2.622.622,0,0,1,.608.621.539.539,0,0,1-.161.392A.637.637,0,0,1-2271.146,1751.8Z" transform="translate(2279.087 -1733.225)" fill="#b3b7c0"/>
  <path id="Path_339" data-name="Path 339" d="M-2393.307,1489.886a.329.329,0,0,1-.329-.329V1468.9a.57.57,0,0,1,.325-.513l13.433-6.344a.566.566,0,0,1,.242-.054.566.566,0,0,1,.242.054l13.432,6.344a.571.571,0,0,1,.325.513v20.652a.329.329,0,0,1-.329.329Zm.807-20.621v19.5h25.729v-19.5l-12.865-6.076Z" transform="translate(2393.635 -1461.993)" fill="#b3b7c0"/>
</svg>
