<svg xmlns="http://www.w3.org/2000/svg" width="100" height="100" viewBox="0 0 100 100">
  <g id="Moneyback_Guarantee" data-name="Moneyback Guarantee" transform="translate(-1463 -1341)">
    <rect id="Rectangle_27" data-name="Rectangle 27" width="100" height="100" rx="7" transform="translate(1463 1341)" fill="#eefff1"/>
    <path id="protection" d="M29.407,56.079a2.279,2.279,0,0,1-2.28,2.28H14.818A9.129,9.129,0,0,1,5.7,49.24V27.165L3.891,28.97A2.28,2.28,0,1,1,.67,25.743L24.638,1.822c.031-.03.062-.06.095-.089a6.834,6.834,0,0,1,9.116.019c.033.03.065.06.1.092l17.141,17.3a2.28,2.28,0,1,1-3.239,3.209L30.762,5.108A2.278,2.278,0,0,0,27.805,5.1L10.256,22.618c0,.022,0,.044,0,.066V49.24A4.565,4.565,0,0,0,14.818,53.8H27.127a2.279,2.279,0,0,1,2.28,2.28Zm28.95-22.34V42.7a16.593,16.593,0,0,1-4.175,10.8,13.873,13.873,0,0,1-10.414,4.973A13.872,13.872,0,0,1,33.354,53.5a16.593,16.593,0,0,1-4.176-10.8V33.74A2.28,2.28,0,0,1,30.45,31.7L42.7,25.654a2.277,2.277,0,0,1,1.008-.235h.12a2.279,2.279,0,0,1,1.009.235L57.086,31.7a2.279,2.279,0,0,1,1.271,2.045ZM53.8,35.157l-10.03-4.946-10.03,4.946V42.7c0,5.869,4.78,11.215,10.03,11.215S53.8,48.568,53.8,42.7Zm0,0" transform="translate(1483.821 1361.528)" fill="#53e773"/>
  </g>
</svg>
