<svg xmlns="http://www.w3.org/2000/svg" width="132.41" height="115.526" viewBox="0 0 132.41 115.526">
  <path id="Quote" d="M87.688-198.23q9.5,5.961,18.781,3.406a32.624,32.624,0,0,0,16.292-10.787,56.393,56.393,0,0,0,10.748-20.722,67.1,67.1,0,0,0,2.376-26.116,61.858,61.858,0,0,0-6.9-20.155A42.69,42.69,0,0,0,117.9-285.8a24.907,24.907,0,0,0-13.011-5.252,18.43,18.43,0,0,0-12.672,3.69,33.171,33.171,0,0,0-9.5,10.645,44.018,44.018,0,0,0-4.978,13.342,44.584,44.584,0,0,0-.566,13.768,25.623,25.623,0,0,0,4.073,11.639,17.575,17.575,0,0,0,8.825,6.813q5.544,1.987,13.464-.568a25.438,25.438,0,0,1-.566,12.916,39.584,39.584,0,0,1-4.978,10.219,36.874,36.874,0,0,1-6.223,7.1A50.519,50.519,0,0,1,87.688-198.23Zm-62.907,6.245q9.5,5.961,18.781,3.406a32.624,32.624,0,0,0,16.292-10.787A56.393,56.393,0,0,0,70.6-220.088,67.1,67.1,0,0,0,72.979-246.2a61.858,61.858,0,0,0-6.9-20.155,42.689,42.689,0,0,0-11.088-13.2,24.907,24.907,0,0,0-13.011-5.252,18.43,18.43,0,0,0-12.672,3.69,33.171,33.171,0,0,0-9.5,10.645,44.019,44.019,0,0,0-4.978,13.342,44.584,44.584,0,0,0-.566,13.768,25.624,25.624,0,0,0,4.073,11.639,17.575,17.575,0,0,0,8.825,6.813q5.544,1.987,13.464-.568a25.437,25.437,0,0,1-.566,12.916,39.584,39.584,0,0,1-4.978,10.219,36.874,36.874,0,0,1-6.223,7.1A50.506,50.506,0,0,1,24.781-191.985Z" transform="matrix(0.995, 0.105, -0.105, 0.995, -33.522, 288.067)" fill="#e2e7f1"/>
</svg>
