<svg xmlns="http://www.w3.org/2000/svg" width="151.241" height="21.314" viewBox="0 0 151.241 21.314">
  <g id="Stars" transform="translate(-1032 -3133)">
    <path id="star" d="M22.183,8.546a1.18,1.18,0,0,0-1.018-.813L14.746,7.15,12.208,1.209a1.182,1.182,0,0,0-2.174,0L7.5,7.15l-6.42.583A1.183,1.183,0,0,0,.4,9.8l4.852,4.255-1.431,6.3a1.18,1.18,0,0,0,1.758,1.277l5.537-3.309,5.535,3.309a1.182,1.182,0,0,0,1.759-1.277l-1.431-6.3L21.836,9.8a1.183,1.183,0,0,0,.347-1.257Zm0,0" transform="translate(1032 3132.509)" fill="#ffc107"/>
    <path id="star-2" data-name="star" d="M22.183,8.546a1.18,1.18,0,0,0-1.018-.813L14.746,7.15,12.208,1.209a1.182,1.182,0,0,0-2.174,0L7.5,7.15l-6.42.583A1.183,1.183,0,0,0,.4,9.8l4.852,4.255-1.431,6.3a1.18,1.18,0,0,0,1.758,1.277l5.537-3.309,5.535,3.309a1.182,1.182,0,0,0,1.759-1.277l-1.431-6.3L21.836,9.8a1.183,1.183,0,0,0,.347-1.257Zm0,0" transform="translate(1065 3132.509)" fill="#ffc107"/>
    <path id="star-3" data-name="star" d="M22.183,8.546a1.18,1.18,0,0,0-1.018-.813L14.746,7.15,12.208,1.209a1.182,1.182,0,0,0-2.174,0L7.5,7.15l-6.42.583A1.183,1.183,0,0,0,.4,9.8l4.852,4.255-1.431,6.3a1.18,1.18,0,0,0,1.758,1.277l5.537-3.309,5.535,3.309a1.182,1.182,0,0,0,1.759-1.277l-1.431-6.3L21.836,9.8a1.183,1.183,0,0,0,.347-1.257Zm0,0" transform="translate(1097 3132.509)" fill="#ffc107"/>
    <path id="star-4" data-name="star" d="M22.183,8.546a1.18,1.18,0,0,0-1.018-.813L14.746,7.15,12.208,1.209a1.182,1.182,0,0,0-2.174,0L7.5,7.15l-6.42.583A1.183,1.183,0,0,0,.4,9.8l4.852,4.255-1.431,6.3a1.18,1.18,0,0,0,1.758,1.277l5.537-3.309,5.535,3.309a1.182,1.182,0,0,0,1.759-1.277l-1.431-6.3L21.836,9.8a1.183,1.183,0,0,0,.347-1.257Zm0,0" transform="translate(1129 3132.509)" fill="#ffc107"/>
    <path id="star-5" data-name="star" d="M22.183,8.546a1.18,1.18,0,0,0-1.018-.813L14.746,7.15,12.208,1.209a1.182,1.182,0,0,0-2.174,0L7.5,7.15l-6.42.583A1.183,1.183,0,0,0,.4,9.8l4.852,4.255-1.431,6.3a1.18,1.18,0,0,0,1.758,1.277l5.537-3.309,5.535,3.309a1.182,1.182,0,0,0,1.759-1.277l-1.431-6.3L21.836,9.8a1.183,1.183,0,0,0,.347-1.257Zm0,0" transform="translate(1161 3132.509)" fill="#ffc107"/>
  </g>
</svg>
