<svg xmlns="http://www.w3.org/2000/svg" width="100" height="100" viewBox="0 0 100 100">
  <g id="Technology_Driven" data-name="Technology Driven" transform="translate(-2232 -1857)">
    <rect id="Rectangle_28" data-name="Rectangle 28" width="100" height="100" rx="7" transform="translate(2232 1857)" fill="#eefff1"/>
    <path id="smart-home" d="M58.295,29.03a2.284,2.284,0,0,1-3.23-.01L53.259,27.2V37.916a2.284,2.284,0,1,1-4.568,0V22.6L31.321,5.118a2.282,2.282,0,0,0-2.963-.006L10.773,22.662c0,.022,0,.044,0,.066V49.336A4.573,4.573,0,0,0,15.345,53.9H44.123a4.573,4.573,0,0,0,4.568-4.568,2.284,2.284,0,1,1,4.568,0,9.146,9.146,0,0,1-9.136,9.136H15.345a9.146,9.146,0,0,1-9.136-9.136V27.217L4.4,29.026a2.284,2.284,0,1,1-3.227-3.233L25.184,1.825c.031-.031.062-.06.095-.089a6.846,6.846,0,0,1,9.134.019c.032.029.064.059.094.09L58.305,25.8a2.284,2.284,0,0,1-.011,3.23ZM32.018,34.6V22.956a2.284,2.284,0,0,0-4.568,0V34.6a2.284,2.284,0,0,0,4.568,0ZM22.1,25.23a2.284,2.284,0,0,0-3.222.224,14.389,14.389,0,1,0,21.718,0,2.284,2.284,0,0,0-3.446,3,9.821,9.821,0,1,1-14.826,0A2.284,2.284,0,0,0,22.1,25.23Zm0,0" transform="translate(2252.616 1877.528)" fill="#53e773"/>
  </g>
</svg>
