<svg xmlns="http://www.w3.org/2000/svg" width="18" height="16.678" viewBox="0 0 18 16.678">
  <g id="Hide" transform="translate(-1 -1.808)">
    <g id="eye-off" transform="translate(1 1.808)">
      <path id="shape" d="M9.252,12.052A2.047,2.047,0,0,0,11.9,9.4Zm3.865-3.865A3.683,3.683,0,0,1,8.04,13.264L6.4,14.9a7.441,7.441,0,0,0,3.6.972c3.639,0,7.364-3.345,7.364-5.727,0-1.063-.946-2.613-2.392-3.815Zm3.016-3.016C17.858,6.645,19,8.57,19,10.147c0,3.328-4.494,7.364-9,7.364A9.167,9.167,0,0,1,5.206,16.1L3.057,18.246A.818.818,0,1,1,1.9,17.089l2.611-2.611.021-.021,9.78-9.78.021-.021,2.61-2.61A.818.818,0,1,1,18.1,3.2ZM11.6,4.61A6.906,6.906,0,0,0,10,4.42c-3.639,0-7.364,3.345-7.364,5.727a4.208,4.208,0,0,0,.9,2.22.818.818,0,0,1-1.334.948A5.722,5.722,0,0,1,1,10.147c0-3.328,4.494-7.364,9-7.364a8.54,8.54,0,0,1,1.977.234A.818.818,0,1,1,11.6,4.61Z" transform="translate(-1 -1.808)" fill="#424d63"/>
    </g>
  </g>
</svg>
