<svg id="Show" xmlns="http://www.w3.org/2000/svg" width="18" height="14.727" viewBox="0 0 18 14.727">
  <g id="eye">
    <path id="shape" d="M10,17.727c-4.506,0-9-4.036-9-7.364S5.494,3,10,3s9,4.036,9,7.364S14.506,17.727,10,17.727Zm0-1.636c3.639,0,7.364-3.345,7.364-5.727S13.639,4.636,10,4.636,2.636,7.981,2.636,10.364,6.361,16.091,10,16.091Zm0-2.045a3.682,3.682,0,1,1,3.682-3.682A3.682,3.682,0,0,1,10,14.045Zm0-1.636a2.045,2.045,0,1,0-2.045-2.045A2.045,2.045,0,0,0,10,12.409Z" transform="translate(-1 -3)" fill="#424d63"/>
  </g>
</svg>
