<svg xmlns="http://www.w3.org/2000/svg" width="18" height="21.466" viewBox="0 0 18 21.466">
  <path id="Bell" d="M-1563.538,5931.092h-.27v-7.452a7.5,7.5,0,0,0-2.191-5.289,7.557,7.557,0,0,0-3.828-2.045l-.03,0v-.415a1.427,1.427,0,0,0-1.422-1.423,1.427,1.427,0,0,0-1.423,1.423v.415l-.049.007a7.508,7.508,0,0,0-6.014,7.331v7.452h-.271a1.253,1.253,0,0,0-1.244,1.257,1.252,1.252,0,0,0,1.244,1.258h4.625a.972.972,0,0,1,.909.714,2.325,2.325,0,0,0,2.212,1.609,2.323,2.323,0,0,0,2.211-1.609.972.972,0,0,1,.909-.714h4.632a1.264,1.264,0,0,0,1.258-1.258A1.264,1.264,0,0,0-1563.538,5931.092Z" transform="translate(1580.28 -5914.464)" fill="#a9b5c9"/>
</svg>
