<svg id="booking" xmlns="http://www.w3.org/2000/svg" width="19.636" height="18" viewBox="0 0 19.636 18">
  <path id="Path_362" data-name="Path 362" d="M88,0h1.636V1.636H88Z" transform="translate(-79)" fill="#fff"/>
  <path id="Path_363" data-name="Path 363" d="M136,0h1.636V1.636H136Z" transform="translate(-122.091)" fill="#fff"/>
  <path id="Path_364" data-name="Path 364" d="M40,0h1.636V1.636H40Z" transform="translate(-35.909)" fill="#fff"/>
  <path id="Path_365" data-name="Path 365" d="M18.818,16H15.545v2.455H13.909V16H10.636v2.455H9V16H5.727v2.455H4.091V16H.818A.818.818,0,0,0,0,16.818V31.545a.818.818,0,0,0,.818.818h18a.818.818,0,0,0,.818-.818V16.818A.818.818,0,0,0,18.818,16ZM15.07,26.484l-1.161-.829v3.436a.818.818,0,0,1-.818.818H11.045V26.636a.818.818,0,0,0-.818-.818H9.409a.818.818,0,0,0-.818.818v3.273H6.545a.818.818,0,0,1-.818-.818V25.655l-1.161.829-.951-1.332,5.727-4.091a.828.828,0,0,1,.951,0l5.727,4.091Z" transform="translate(0 -14.364)" fill="#fff"/>
</svg>
