<svg xmlns="http://www.w3.org/2000/svg" width="24.962" height="24.961" viewBox="0 0 24.962 24.961">
  <path id="download" d="M24.962,18.245v3.315a3.9,3.9,0,0,1-3.9,3.9H3.9a3.9,3.9,0,0,1-3.9-3.9V18.245a.975.975,0,0,1,1.95,0v3.315a1.952,1.952,0,0,0,1.95,1.95H21.061a1.952,1.952,0,0,0,1.95-1.95V18.245a.975.975,0,0,1,1.95,0ZM10.458,20.7a2.921,2.921,0,0,0,4.144,0l4.441-4.467A1.906,1.906,0,0,0,17.7,12.98H16.625a.975.975,0,0,0,0,1.95h.961l-4.367,4.393a.972.972,0,0,1-1.378,0L7.473,14.93h4.081a1.952,1.952,0,0,0,1.95-1.95V1.475a.975.975,0,1,0-1.95,0V12.98H7.362a1.906,1.906,0,0,0-1.346,3.251Zm0,0" transform="translate(0 -0.5)" fill="#fff"/>
</svg>
