<svg id="eye_1_" data-name="eye (1)" xmlns="http://www.w3.org/2000/svg" width="9.992" height="6.209" viewBox="0 0 9.992 6.209">
  <g id="Group_600" data-name="Group 600">
    <path id="Path_359" data-name="Path 359" d="M9.953,119.111a.323.323,0,0,0,0-.308,5.639,5.639,0,0,0-9.914,0,.323.323,0,0,0,0,.308,5.639,5.639,0,0,0,9.914,0ZM5,121.339a2.381,2.381,0,1,1,2.381-2.381A2.381,2.381,0,0,1,5,121.339Z" transform="translate(0 -115.853)" fill="#fff"/>
    <path id="Path_360" data-name="Path 360" d="M232.883,231.67a1.218,1.218,0,0,0-.291.035.629.629,0,0,1-.888.888,1.214,1.214,0,1,0,1.178-.923Z" transform="translate(-227.887 -229.779)" fill="#fff"/>
  </g>
</svg>
