<svg xmlns="http://www.w3.org/2000/svg" width="23.112" height="22.148" viewBox="0 0 23.112 22.148">
  <path id="star_1_" data-name="star (1)" d="M23.051,8.865a1.227,1.227,0,0,0-1.056-.844l-6.672-.606L12.686,1.242a1.229,1.229,0,0,0-2.26,0L7.789,7.415l-6.673.606a1.23,1.23,0,0,0-.7,2.149l5.043,4.422L3.975,21.142A1.228,1.228,0,0,0,5.8,22.47l5.753-3.44,5.752,3.44a1.229,1.229,0,0,0,1.829-1.328l-1.487-6.549,5.043-4.422a1.23,1.23,0,0,0,.358-1.306Zm-11.385,10.1" transform="translate(0 -0.496)" fill="#e7c953"/>
</svg>
