<svg xmlns="http://www.w3.org/2000/svg" width="10.336" height="19.118" viewBox="0 0 10.336 19.118">
  <path id="Path_98" data-name="Path 98" d="M32.024,0,29.545,0A4.354,4.354,0,0,0,24.96,4.7V6.874H22.467a.39.39,0,0,0-.39.39v3.143a.39.39,0,0,0,.39.39H24.96v7.931a.39.39,0,0,0,.39.39H28.6a.39.39,0,0,0,.39-.39V10.8h2.915a.39.39,0,0,0,.39-.39V7.264a.39.39,0,0,0-.39-.39H28.992V5.035c0-.884.211-1.333,1.362-1.333h1.67a.39.39,0,0,0,.39-.39V.394A.39.39,0,0,0,32.024,0Z" transform="translate(-22.077)" fill="#a9b5c9"/>
</svg>
