<svg id="instagram" xmlns="http://www.w3.org/2000/svg" width="19.118" height="19.118" viewBox="0 0 19.118 19.118">
  <path id="Path_99" data-name="Path 99" d="M13.942,0H5.174A5.181,5.181,0,0,0,0,5.175v8.768a5.181,5.181,0,0,0,5.175,5.175h8.768a5.181,5.181,0,0,0,5.175-5.175V5.175A5.181,5.181,0,0,0,13.942,0ZM9.558,14.786a5.227,5.227,0,1,1,5.228-5.227A5.233,5.233,0,0,1,9.558,14.786Zm5.353-9.222A1.545,1.545,0,1,1,16.456,4.02,1.546,1.546,0,0,1,14.911,5.564Zm0,0" transform="translate(0.001 0)" fill="#a9b5c9"/>
  <path id="Path_100" data-name="Path 100" d="M150.127,146.02a4.107,4.107,0,1,0,4.107,4.107A4.111,4.111,0,0,0,150.127,146.02Zm0,0" transform="translate(-140.568 -140.568)" fill="#a9b5c9"/>
  <path id="Path_101" data-name="Path 101" d="M388.416,96.3a.424.424,0,1,0,.424.424A.424.424,0,0,0,388.416,96.3Zm0,0" transform="translate(-373.505 -92.705)" fill="#fff"/>
</svg>
