<svg xmlns="http://www.w3.org/2000/svg" width="19.612" height="20.632" viewBox="0 0 19.612 20.632">
  <g id="invitation" transform="translate(-9.824 0)">
    <g id="Group_631" data-name="Group 631" transform="translate(27.522 6.074)">
      <g id="Group_630" data-name="Group 630">
        <path id="Path_367" data-name="Path 367" d="M350.825,117.05v2.574l1.635-1.214Z" transform="translate(-350.825 -117.05)" fill="#fff"/>
      </g>
    </g>
    <g id="Group_633" data-name="Group 633" transform="translate(17.978 0)">
      <g id="Group_632" data-name="Group 632" transform="translate(0 0)">
        <path id="Path_368" data-name="Path 368" d="M169.572.36a1.558,1.558,0,0,0-1.988-.005l-.659.56h3.316Z" transform="translate(-166.925 0)" fill="#fff"/>
      </g>
    </g>
    <g id="Group_635" data-name="Group 635" transform="translate(9.824 8.488)">
      <g id="Group_634" data-name="Group 634" transform="translate(0)">
        <path id="Path_369" data-name="Path 369" d="M21.18,169.721a2.544,2.544,0,0,1-1.541.509,2.593,2.593,0,0,1-1.547-.509L9.824,163.55v10.582a1.553,1.553,0,0,0,1.541,1.562H27.9a1.553,1.553,0,0,0,1.541-1.562V163.55Z" transform="translate(-9.824 -163.55)" fill="#fff"/>
      </g>
    </g>
    <g id="Group_637" data-name="Group 637" transform="translate(10.11 6.121)">
      <g id="Group_636" data-name="Group 636">
        <path id="Path_370" data-name="Path 370" d="M15.325,119.263l1.583,1.178V117.95Z" transform="translate(-15.325 -117.95)" fill="#fff"/>
      </g>
    </g>
    <g id="Group_639" data-name="Group 639" transform="translate(12.731 1.954)">
      <g id="Group_638" data-name="Group 638" transform="translate(0)">
        <path id="Path_371" data-name="Path 371" d="M65.825,37.65v7.432l5.968,4.442a1.6,1.6,0,0,0,1.874,0l5.911-4.406V37.65ZM69.51,41.8h2.8a.519.519,0,0,1,0,1.038h-2.8a.519.519,0,0,1,0-1.038Zm6.435,3.633H69.51a.519.519,0,1,1,0-1.038h6.435a.519.519,0,0,1,0,1.038Z" transform="translate(-65.825 -37.65)" fill="#fff"/>
      </g>
    </g>
  </g>
</svg>
