<svg id="linkedin" xmlns="http://www.w3.org/2000/svg" width="20.002" height="19.118" viewBox="0 0 20.002 19.118">
  <path id="Path_102" data-name="Path 102" d="M2.426-.668a2.235,2.235,0,1,0-.056,4.457H2.4A2.236,2.236,0,1,0,2.426-.668Zm0,0" transform="translate(0 0.668)" fill="#a9b5c9"/>
  <path id="Path_103" data-name="Path 103" d="M8.109,198.313H12.4v12.9H8.109Zm0,0" transform="translate(-7.856 -192.094)" fill="#a9b5c9"/>
  <path id="Path_104" data-name="Path 104" d="M229.367,188.625A5.372,5.372,0,0,0,225.5,190.8v-1.871h-4.288v12.9H225.5v-7.2a2.94,2.94,0,0,1,.141-1.046,2.347,2.347,0,0,1,2.2-1.568c1.551,0,2.172,1.183,2.172,2.917v6.9H234.3v-7.4C234.3,190.469,232.188,188.625,229.367,188.625Zm0,0" transform="translate(-214.301 -182.709)" fill="#a9b5c9"/>
</svg>
