<svg xmlns="http://www.w3.org/2000/svg" width="23.524" height="19.118" viewBox="0 0 23.524 19.118">
  <path id="twitter_1_" data-name="twitter (1)" d="M7.48,15.294A13.639,13.639,0,0,0,21.212,1.562q0-.313-.014-.624a9.822,9.822,0,0,0,2.408-2.5,9.629,9.629,0,0,1-2.772.76,4.845,4.845,0,0,0,2.122-2.67A9.68,9.68,0,0,1,19.892-2.3,4.829,4.829,0,0,0,11.542,1a4.822,4.822,0,0,0,.125,1.1A13.7,13.7,0,0,1,1.719-2.94,4.815,4.815,0,0,0,1.065-.515,4.822,4.822,0,0,0,3.213,3.5a4.789,4.789,0,0,1-2.186-.6c0,.02,0,.04,0,.062A4.828,4.828,0,0,0,4.9,7.692a4.844,4.844,0,0,1-1.273.17,4.8,4.8,0,0,1-.907-.087,4.832,4.832,0,0,0,4.509,3.352,9.683,9.683,0,0,1-5.995,2.066,9.822,9.822,0,0,1-1.151-.067,13.662,13.662,0,0,0,7.4,2.168" transform="translate(-0.082 3.824)" fill="#a9b5c9"/>
</svg>
