<svg id="world" xmlns="http://www.w3.org/2000/svg" width="19.115" height="19.118" viewBox="0 0 19.115 19.118">
  <g id="Group_108" data-name="Group 108" transform="translate(0)">
    <path id="Path_105" data-name="Path 105" d="M23.029,5.48l-.286.091-1.523.136-.43.687-.312-.1L19.265,5.2l-.176-.568-.236-.606-.762-.683-.9-.176-.021.411.881.859.431.508L18,5.2,17.6,5.083l-.591-.246.02-.476-.775-.319L16,5.162l-.781.177.077.625,1.018.2.176-1,.84.124.391.229h.627l.429.859,1.137,1.154-.083.448-.917-.117-1.585.8-1.141,1.369-.148.606h-.41l-.763-.352-.741.352.184.782.323-.372.567-.018-.04.7.47.138.469.527.766-.215.875.138,1.016.273.508.06.86.977,1.661.977-1.074,2.052-1.134.527-.43,1.173-1.641,1.1-.175.632a9.546,9.546,0,0,0,5.7-14.6Z" transform="translate(-5.532 -1.24)" fill="#a9b5c9"/>
    <path id="Path_106" data-name="Path 106" d="M10.66,17.5l-.7-1.291.639-1.332-.639-.191-.717-.721-1.59-.357-.528-1.1v.655H6.9l-1.37-1.857V9.781l-1-1.633-1.594.284H1.855l-.54-.354L2,7.532l-.688.159A9.546,9.546,0,0,0,9.561,22.067a10.008,10.008,0,0,0,1.2-.083l-.1-1.158s.439-1.72.439-1.778S10.66,17.5,10.66,17.5Z" transform="translate(-0.004 -2.948)" fill="#a9b5c9"/>
    <path id="Path_107" data-name="Path 107" d="M4.962,3.082l1.7-.237.783-.429.881.254L9.73,2.592l.482-.758.7.116,1.707-.16.47-.518.663-.443.938.141.342-.052A9.528,9.528,0,0,0,3.6,3.475h0ZM11.371.951l.976-.537.627.362-.907.691-.867.087L10.81,1.3ZM8.48,1.029l.431.18.564-.18.307.532L8.48,1.9l-.626-.366S8.466,1.143,8.48,1.029Z" transform="translate(-1.41 0)" fill="#a9b5c9"/>
  </g>
</svg>
