<svg xmlns="http://www.w3.org/2000/svg" width="46" height="45" viewBox="0 0 46 45">
  <g id="Youtube" transform="translate(-394 -2761)">
    <g id="Group_499" data-name="Group 499" transform="translate(394.459 2761)">
      <rect id="Rectangle_484" data-name="Rectangle 484" width="46" height="45" rx="5" transform="translate(-0.459 0)" fill="#f2f5fb"/>
    </g>
    <path id="Icon_awesome-youtube" data-name="Icon awesome-youtube" d="M28.342,7.567a3.5,3.5,0,0,0-2.464-2.48C23.7,4.5,14.987,4.5,14.987,4.5S6.271,4.5,4.1,5.086a3.5,3.5,0,0,0-2.464,2.48A36.742,36.742,0,0,0,1.05,14.32a36.742,36.742,0,0,0,.582,6.753A3.45,3.45,0,0,0,4.1,23.513c2.174.586,10.891.586,10.891.586s8.717,0,10.891-.586a3.45,3.45,0,0,0,2.464-2.441,36.742,36.742,0,0,0,.582-6.753,36.742,36.742,0,0,0-.582-6.753Zm-16.206,10.9V10.175l7.285,4.145-7.285,4.145Z" transform="translate(401.95 2769.5)" fill="#a3adc1"/>
  </g>
</svg>
